<?xml version="1.0" encoding="UTF-8"?>
<svg version="1.1" xmlns="http://www.w3.org/2000/svg" width="280" height="259">
<path d="M0 0 C92.4 0 184.8 0 280 0 C280 85.47 280 170.94 280 259 C187.6 259 95.2 259 0 259 C0 173.53 0 88.06 0 0 Z " fill="#DEE3E5" transform="translate(0,0)"/>
<path d="M0 0 C5.97117514 3.50647732 11.28507465 7.26601702 15.05859375 13.1328125 C17.84023968 17.15784718 21.02484 18.62554752 25.44140625 20.4921875 C37.29985207 25.97467425 44.63748309 33.38434119 50.44140625 44.9921875 C51.53819129 48.02140332 52.04839341 50.41404635 52.50390625 53.5546875 C53.38693992 58.52835577 55.43007444 61.14770159 59 64.6328125 C64.22948608 70.54946935 64.57460379 76.88732021 64.3125 84.47265625 C63.74587144 90.69403594 60.74152491 95.89523221 56.75390625 100.6171875 C55.26890625 101.1121875 55.26890625 101.1121875 53.75390625 101.6171875 C53.75390625 102.2771875 53.75390625 102.9371875 53.75390625 103.6171875 C54.65109375 103.83375 54.65109375 103.83375 55.56640625 104.0546875 C60.27016034 105.26422427 61.9424945 106.64243296 64.75390625 110.6171875 C64.75390625 111.2771875 64.75390625 111.9371875 64.75390625 112.6171875 C65.41390625 112.6171875 66.07390625 112.6171875 66.75390625 112.6171875 C67.24890625 116.5771875 67.24890625 116.5771875 67.75390625 120.6171875 C69.73390625 121.1121875 69.73390625 121.1121875 71.75390625 121.6171875 C72.09847832 130.10386995 72.07668733 136.06717996 67.67578125 143.41796875 C66.48702974 146.25384629 66.47502506 148.67377931 66.37890625 151.7421875 C65.57846869 163.3098013 61.04647939 171.4884494 52.75390625 179.6171875 C50.8965925 180.84424935 48.99964428 182.01360884 47.06640625 183.1171875 C41.69339896 186.22159171 39.83877249 189.48234409 37.1875 194.97265625 C31.88636484 204.7515895 19.39004488 209.97516907 9.16796875 213.02734375 C-0.54614854 215.40085784 -10.09779125 215.83446967 -20.05859375 215.9296875 C-21.12013672 215.94733154 -22.18167969 215.96497559 -23.27539062 215.9831543 C-30.2541468 215.97713813 -38.03518505 215.8280962 -43.24609375 210.6171875 C-43.44579924 208.03721043 -43.51976281 205.56421578 -43.50679016 202.98286438 C-43.51061571 202.18571823 -43.51444126 201.38857208 -43.51838273 200.56726998 C-43.52874765 197.88112505 -43.52471395 195.19519249 -43.52075195 192.5090332 C-43.52509664 190.58908387 -43.53027897 188.66913628 -43.53623962 186.74919128 C-43.54967069 181.52171427 -43.55020348 176.29430939 -43.54767632 171.06681848 C-43.54660885 166.70562091 -43.5514845 162.34443807 -43.55628175 157.98324364 C-43.56739227 147.69234987 -43.56780642 137.40149258 -43.56176758 127.1105957 C-43.55573266 116.49288955 -43.56802305 105.87531607 -43.58933765 95.25763255 C-43.60695527 86.1467216 -43.61295453 77.03585286 -43.6096999 67.92492551 C-43.60788632 62.48143645 -43.61053027 57.03804191 -43.62441444 51.59456825 C-43.63698984 46.47198811 -43.6350513 41.3496144 -43.62200356 36.22703743 C-43.61963717 34.34812093 -43.62237467 32.46918993 -43.63062668 30.59029007 C-43.64109117 28.0220971 -43.63299583 25.45459708 -43.62031555 22.88642883 C-43.62768984 22.1455571 -43.63506412 21.40468536 -43.64266187 20.64136297 C-43.57224554 13.84601021 -41.51213088 8.13399871 -36.85546875 3.0390625 C-26.56524958 -6.05229619 -11.91199127 -5.73720396 0 0 Z " fill="#93BE9C" transform="translate(187.24609375,21.3828125)"/>
<path d="M0 0 C5.36262304 3.83044503 9.29174431 7.98109892 11.3125 14.375 C11.50054058 17.09684818 11.58690605 19.71465424 11.57319641 22.43496704 C11.57893473 23.6448899 11.57893473 23.6448899 11.58478898 24.87925565 C11.59509927 27.57923823 11.59113064 30.27900736 11.5871582 32.97900391 C11.59150565 34.91573788 11.59668891 36.85247014 11.60264587 38.78919983 C11.61604056 44.04722132 11.61661424 49.30517096 11.61408257 54.5632062 C11.61301363 58.94978458 11.61789404 63.33634837 11.622688 67.72292364 C11.63378385 78.06692111 11.63421951 88.41088227 11.62817383 98.75488281 C11.62212682 109.4369189 11.63446334 120.11882351 11.6557439 130.80083716 C11.67333343 139.96609801 11.67936563 149.1313169 11.67610615 158.29659402 C11.67428962 163.7734455 11.67696662 169.2502031 11.69082069 174.72703934 C11.70335212 179.87344914 11.70149958 185.01965303 11.68840981 190.16605949 C11.68603458 192.05794658 11.68881233 193.94984796 11.69703293 195.84171867 C11.70742202 198.41772157 11.6994636 200.99302332 11.6867218 203.56900024 C11.69409609 204.32336794 11.70147037 205.07773563 11.70906812 205.85496294 C11.65645617 210.88592892 11.65645617 210.88592892 9.96562481 213.29012108 C-1.19562096 220.61479506 -22.99937453 217.56622123 -35.44140625 215.2956543 C-48.33999274 212.44164014 -60.46255017 207.2391988 -67.875 195.8125 C-68.36355469 195.06871094 -68.85210937 194.32492188 -69.35546875 193.55859375 C-70.6875 191.375 -70.6875 191.375 -71.51171875 189.296875 C-73.21866568 186.50678235 -75.42540931 185.6675908 -78.3125 184.1875 C-86.99995998 179.31252246 -93.11306426 172.72730511 -96.6875 163.375 C-97.3064271 160.38484574 -97.55518589 157.41929518 -97.75 154.375 C-98.07059367 149.73628658 -98.44490427 145.63806631 -100.234375 141.3125 C-101.93459536 137.15399925 -101.99534554 133.86790027 -101.875 129.375 C-101.86146484 128.69566406 -101.84792969 128.01632813 -101.83398438 127.31640625 C-101.79917822 125.66891488 -101.74539677 124.02184159 -101.6875 122.375 C-100.3675 122.375 -99.0475 122.375 -97.6875 122.375 C-97.25050781 123.6434375 -97.25050781 123.6434375 -96.8046875 124.9375 C-94.10523742 132.65424003 -94.10523742 132.65424003 -89.375 139.1875 C-85.75382376 143.49450507 -86.47894812 148.07318819 -86.72216797 153.36352539 C-86.92856913 159.78681996 -85.50647675 164.24487592 -81.6875 169.375 C-78.94430682 172.05287905 -77.29804421 173.17148526 -73.6875 174.375 C-73.6875 175.035 -73.6875 175.695 -73.6875 176.375 C-72.945 176.4575 -72.2025 176.54 -71.4375 176.625 C-68.03607272 177.55266199 -66.98374169 178.71899897 -64.6875 181.375 C-63.59911099 183.38146775 -62.58011042 185.42677364 -61.625 187.5 C-59.54617577 192.1654495 -59.54617577 192.1654495 -55.6875 195.375 C-55.6875 196.035 -55.6875 196.695 -55.6875 197.375 C-54.90375 197.6225 -54.12 197.87 -53.3125 198.125 C-49.61894728 199.39863887 -46.04295602 200.8552034 -42.4453125 202.375 C-27.222196 207.89499692 -17.47434388 205.375 1.3125 205.375 C1.3125 172.045 1.3125 138.715 1.3125 104.375 C-25.40365555 104.49368484 -25.40365555 104.49368484 -52.11962891 104.64526367 C-57.29760742 104.65881348 -57.29760742 104.65881348 -59.72494507 104.66133118 C-61.41303888 104.66592499 -63.10112312 104.67644945 -64.78915405 104.69172668 C-67.35261016 104.71375844 -69.91546698 104.71671565 -72.47900391 104.71557617 C-73.22562098 104.7263705 -73.97223804 104.73716482 -74.74147987 104.74828625 C-80.26917744 104.71550238 -84.34180971 103.48561022 -88.48046875 99.76171875 C-93.84067911 93.23037 -96.37997648 88.24321663 -96.17578125 79.61328125 C-95.01359981 71.90569394 -90.73024983 65.18646169 -85.6875 59.375 C-84.6975 58.88 -84.6975 58.88 -83.6875 58.375 C-83.22626299 56.09559645 -82.84475442 53.79990533 -82.5 51.5 C-80.71407699 41.39780924 -76.01549417 33.46183803 -68 26.93359375 C-64.35915732 24.47971498 -60.49308776 22.58835418 -56.51953125 20.734375 C-51.98633594 18.55844125 -48.65666975 16.8232449 -45.875 12.5625 C-36.23885812 -0.72369563 -15.11505699 -8.5247122 0 0 Z " fill="#192F47" transform="translate(119.6875,20.625)"/>
<path d="M0 0 C0.83310574 0.00979165 1.66621147 0.0195833 2.52456284 0.02967167 C5.2166587 0.06250128 7.90859264 0.1025216 10.60058594 0.14282227 C12.26447965 0.16417114 13.92837949 0.18504803 15.59228516 0.20544434 C21.75658628 0.28431771 27.92076777 0.37232687 34.08496094 0.45922852 C47.86246094 0.64485352 61.63996094 0.83047852 75.83496094 1.02172852 C75.83496094 34.35172852 75.83496094 67.68172852 75.83496094 102.02172852 C66.82418251 106.52711773 44.9099938 104.13817589 35.34033203 101.43408203 C32.43140205 100.44238474 29.6303752 99.29702208 26.83496094 98.02172852 C25.98289063 97.6646582 25.13082031 97.30758789 24.25292969 96.93969727 C16.63231698 93.49325801 13.79916959 88.4883781 10.74316406 81.06665039 C9.09970253 77.46027227 7.68690115 75.6255139 4.10449219 74.08813477 C2.48607422 73.56026367 2.48607422 73.56026367 0.83496094 73.02172852 C0.83496094 72.36172852 0.83496094 71.70172852 0.83496094 71.02172852 C0.27808594 70.93922852 -0.27878906 70.85672852 -0.85253906 70.77172852 C-5.74175845 69.18603574 -8.41179749 66.08420375 -10.97753906 61.77172852 C-13.2357399 57.10339895 -13.30560756 53.09539089 -13.04003906 48.02172852 C-12.69771743 41.19510619 -14.0062259 37.64578889 -18.40722656 32.41625977 C-21.34903504 28.40886288 -22.20478293 23.83215449 -23.16503906 19.02172852 C-24.48503906 18.69172852 -25.80503906 18.36172852 -27.16503906 18.02172852 C-26.17503906 18.02172852 -25.18503906 18.02172852 -24.16503906 18.02172852 C-24.23078125 17.29211914 -24.29652344 16.56250977 -24.36425781 15.81079102 C-24.00849858 10.83016172 -20.45263248 7.56958974 -17.16503906 4.02172852 C-11.67150576 -0.06648231 -6.67229096 -0.11198766 0 0 Z " fill="#8BB7D1" transform="translate(45.1650390625,123.978271484375)"/>
<path d="M0 0 C7.32622605 3.6887292 13.48157197 9.30211531 17.2265625 16.6640625 C18.67011474 19.18731466 18.67011474 19.18731466 21.421875 19.83203125 C22.41058594 19.98027344 23.39929688 20.12851562 24.41796875 20.28125 C33.017419 22.14255785 38.93078216 27.052659 44.23046875 33.96875 C47.55516127 39.33723368 48.75868846 45.390735 50.09375 51.4921875 C50.78069199 54.92085153 50.78069199 54.92085153 51.85546875 57.96875 C53.34046875 58.46375 53.34046875 58.46375 54.85546875 58.96875 C58.65005906 62.96643106 60.22369149 67.12409789 60.41796875 72.59375 C60.17741082 77.41827287 59.20998314 80.34224795 55.85546875 83.96875 C51.71635376 87.09952201 48.15404154 87.38553483 43.12768555 87.30932617 C41.98542259 87.30998329 41.98542259 87.30998329 40.82008362 87.31065369 C38.31468654 87.3085714 35.809967 87.28526744 33.3046875 87.26171875 C31.56305812 87.25612079 29.82142401 87.25185163 28.07978821 87.24885559 C23.50449492 87.23742256 18.9294891 87.20796871 14.35430908 87.17474365 C9.68220915 87.14400949 5.01006259 87.13034311 0.33789062 87.11523438 C-8.8230427 87.08309748 -17.98376303 87.03191981 -27.14453125 86.96875 C-27.23723478 76.62447619 -27.30829809 66.2803013 -27.35177994 55.9356966 C-27.37264972 51.13219334 -27.40095624 46.3289744 -27.44628906 41.52563477 C-27.48976855 36.88962703 -27.51367294 32.25389267 -27.52404022 27.61769676 C-27.53142782 25.84944543 -27.54585418 24.08120897 -27.56745148 22.31307411 C-27.59651398 19.83509684 -27.60048615 17.35824739 -27.59863281 14.88012695 C-27.61301392 14.15004425 -27.62739502 13.41996155 -27.64221191 12.66775513 C-27.60289357 7.80535078 -26.56945589 5.39523084 -23.14453125 1.96875 C-16.74330859 -2.96778612 -7.40965001 -2.42999702 0 0 Z " fill="#DCE1E5" transform="translate(181.14453125,29.03125)"/>
<path d="M0 0 C0 0.66 0 1.32 0 2 C1.175625 2.37125 1.175625 2.37125 2.375 2.75 C5 4 5 4 6.14987183 5.59649658 C7.3384466 8.95686461 7.26197925 12.18759867 7.22705078 15.70605469 C7.22734283 16.47717087 7.22763489 17.24828705 7.22793579 18.04277039 C7.22654493 20.5859206 7.21099527 23.1287761 7.1953125 25.671875 C7.1915815 27.43735596 7.18873494 29.20283899 7.18673706 30.96832275 C7.17910743 35.61095922 7.15946467 40.25347019 7.1373291 44.89605713 C7.11685626 49.63511457 7.10773226 54.37419232 7.09765625 59.11328125 C7.07621817 68.40890925 7.04209027 77.70444418 7 87 C-3.47461563 87.11587487 -13.94907868 87.20470578 -24.42420483 87.25906086 C-29.2883233 87.2851494 -34.15200313 87.32053384 -39.01586914 87.37719727 C-43.71024699 87.43154363 -48.40420306 87.46142613 -53.09887123 87.47438622 C-54.88947502 87.48362141 -56.68005585 87.50165593 -58.47047997 87.52865028 C-60.97976848 87.5649767 -63.48731681 87.56994403 -65.99682617 87.56762695 C-66.73625961 87.58560333 -67.47569305 87.60357971 -68.23753357 87.62210083 C-72.19872039 87.58255155 -73.83302924 87.13700492 -76.93769836 84.58952332 C-80.70184023 79.86308905 -80.46975611 75.88524642 -80 70 C-78.6717283 65.39011586 -77.06346922 62.96607215 -73.5 59.9375 C-69.07433358 55.83588865 -68.73517696 51.20430378 -67.73828125 45.44921875 C-66.71220092 40.6554149 -64.72782324 37.02267605 -62 33 C-61.443125 32.113125 -60.88625 31.22625 -60.3125 30.3125 C-55.5987574 25.5987574 -50.06314155 22.05433892 -43.375 21.3125 C-40.11706971 20.76759969 -39.15185135 20.17026616 -36.90625 17.65234375 C-35.54511821 15.70749583 -34.20922257 13.74475503 -32.8984375 11.765625 C-29.28960152 6.50830839 -24.72532439 2.54019477 -18.59765625 0.45703125 C-12.48883936 -0.61775307 -6.17579249 -0.20236213 0 0 Z " fill="#92BD9A" transform="translate(114,28)"/>
<path d="M0 0 C5.97117514 3.50647732 11.28507465 7.26601702 15.05859375 13.1328125 C17.84023968 17.15784718 21.02484 18.62554752 25.44140625 20.4921875 C37.29985207 25.97467425 44.63748309 33.38434119 50.44140625 44.9921875 C51.53819129 48.02140332 52.04839341 50.41404635 52.50390625 53.5546875 C53.38693992 58.52835577 55.43007444 61.14770159 59 64.6328125 C63.25234684 69.44393097 64.31185569 74.21210312 64.25390625 80.4921875 C64.24891113 81.19964111 64.24391602 81.90709473 64.23876953 82.63598633 C64.00648065 89.58462799 62.06706981 93.41170175 57.19140625 98.12890625 C51.99674713 102.66124633 48.53997076 103.90754734 41.79418945 103.84423828 C40.55957993 103.84459989 40.55957993 103.84459989 39.3000288 103.8449688 C36.63480521 103.84347558 33.96986107 103.82824253 31.3046875 103.8125 C29.65962865 103.80955959 28.01456793 103.80751914 26.36950684 103.80639648 C20.26844478 103.79590893 14.16742277 103.76798654 8.06640625 103.7421875 C-5.56671875 103.7009375 -19.19984375 103.6596875 -33.24609375 103.6171875 C-33.24609375 137.2771875 -33.24609375 170.9371875 -33.24609375 205.6171875 C-2.32411956 206.27289337 -2.32411956 206.27289337 25.71484375 193.890625 C29.06668076 190.15351937 31.16396206 185.88825487 33.34375 181.41015625 C35.15364004 177.82547099 36.10167233 176.86503639 39.87890625 175.4296875 C45.9815375 172.86887564 51.08414298 168.56772623 54.19140625 162.6796875 C56.16956329 157.73853988 56.05127903 152.68071772 56.18139648 147.44091797 C56.43356232 142.03186464 57.68095122 138.98228689 61.37890625 135.09765625 C63.00608495 133.55047652 63.00608495 133.55047652 63.75390625 130.6171875 C64.41390625 130.6171875 65.07390625 130.6171875 65.75390625 130.6171875 C65.89828125 129.5034375 66.04265625 128.3896875 66.19140625 127.2421875 C66.75390625 123.6171875 66.75390625 123.6171875 67.75390625 121.6171875 C69.07390625 121.6171875 70.39390625 121.6171875 71.75390625 121.6171875 C72.09847832 130.10386995 72.07668733 136.06717996 67.67578125 143.41796875 C66.48702974 146.25384629 66.47502506 148.67377931 66.37890625 151.7421875 C65.57846869 163.3098013 61.04647939 171.4884494 52.75390625 179.6171875 C50.8965925 180.84424935 48.99964428 182.01360884 47.06640625 183.1171875 C41.69339896 186.22159171 39.83877249 189.48234409 37.1875 194.97265625 C31.88636484 204.7515895 19.39004488 209.97516907 9.16796875 213.02734375 C-0.54614854 215.40085784 -10.09779125 215.83446967 -20.05859375 215.9296875 C-21.12013672 215.94733154 -22.18167969 215.96497559 -23.27539062 215.9831543 C-30.2541468 215.97713813 -38.03518505 215.8280962 -43.24609375 210.6171875 C-43.44579924 208.03721043 -43.51976281 205.56421578 -43.50679016 202.98286438 C-43.51061571 202.18571823 -43.51444126 201.38857208 -43.51838273 200.56726998 C-43.52874765 197.88112505 -43.52471395 195.19519249 -43.52075195 192.5090332 C-43.52509664 190.58908387 -43.53027897 188.66913628 -43.53623962 186.74919128 C-43.54967069 181.52171427 -43.55020348 176.29430939 -43.54767632 171.06681848 C-43.54660885 166.70562091 -43.5514845 162.34443807 -43.55628175 157.98324364 C-43.56739227 147.69234987 -43.56780642 137.40149258 -43.56176758 127.1105957 C-43.55573266 116.49288955 -43.56802305 105.87531607 -43.58933765 95.25763255 C-43.60695527 86.1467216 -43.61295453 77.03585286 -43.6096999 67.92492551 C-43.60788632 62.48143645 -43.61053027 57.03804191 -43.62441444 51.59456825 C-43.63698984 46.47198811 -43.6350513 41.3496144 -43.62200356 36.22703743 C-43.61963717 34.34812093 -43.62237467 32.46918993 -43.63062668 30.59029007 C-43.64109117 28.0220971 -43.63299583 25.45459708 -43.62031555 22.88642883 C-43.62768984 22.1455571 -43.63506412 21.40468536 -43.64266187 20.64136297 C-43.57224554 13.84601021 -41.51213088 8.13399871 -36.85546875 3.0390625 C-26.56524958 -6.05229619 -11.91199127 -5.73720396 0 0 Z M-31.24609375 11.6171875 C-33.69998601 15.2980259 -33.51463154 18.04770028 -33.47314453 22.30151367 C-33.47343658 23.0822374 -33.47372864 23.86296112 -33.47402954 24.66734314 C-33.47263599 27.24839383 -33.45707368 29.82915598 -33.44140625 32.41015625 C-33.43767621 34.19948672 -33.43482919 35.98881923 -33.43283081 37.77815247 C-33.42519365 42.48820635 -33.40554444 47.19813693 -33.38342285 51.90814209 C-33.36296622 56.71413505 -33.35382948 61.52014793 -33.34375 66.32617188 C-33.32229864 75.7565646 -33.28816167 85.1868658 -33.24609375 94.6171875 C-23.16255486 94.68672045 -13.07907308 94.74001554 -2.99534321 94.77262402 C1.68702861 94.78827504 6.36923631 94.80950306 11.05151367 94.84350586 C15.57080001 94.87611936 20.08992856 94.89404475 24.6093235 94.90181923 C26.33289893 94.90735916 28.05646579 94.91817734 29.77997398 94.93437767 C32.19554635 94.95617863 34.61046801 94.95915335 37.02612305 94.95776367 C37.73750427 94.9685495 38.4488855 94.97933533 39.18182373 94.990448 C43.56361696 94.96319965 46.25337709 94.2649416 49.75390625 91.6171875 C53.84097578 87.19873395 54.47646609 83.27213269 54.28515625 77.453125 C53.40657588 72.76305628 51.02796763 69.05240734 47.75390625 65.6171875 C47.09390625 65.6171875 46.43390625 65.6171875 45.75390625 65.6171875 C44.22317898 60.72906508 42.76889059 55.90419929 41.81640625 50.8671875 C40.93319059 46.74792758 39.36432131 43.97343543 36.75390625 40.6171875 C35.99078125 39.6065625 35.22765625 38.5959375 34.44140625 37.5546875 C29.56094595 32.22023089 25.95150123 29.72363716 18.75390625 28.4296875 C13.74926925 27.34524561 11.76925284 26.08156608 8.94140625 21.8046875 C8.40773437 20.91910156 7.8740625 20.03351562 7.32421875 19.12109375 C5.03102172 15.46452833 2.26201201 13.07362917 -1.24609375 10.6171875 C-1.80425781 10.2046875 -2.36242187 9.7921875 -2.9375 9.3671875 C-11.61782298 3.96776413 -24.00509926 4.37619301 -31.24609375 11.6171875 Z " fill="#172D44" transform="translate(187.24609375,21.3828125)"/>
<path d="M0 0 C0.33 0 0.66 0 1 0 C1 26.07 1 52.14 1 79 C1.66 79 2.32 79 3 79 C3.495 77.515 3.495 77.515 4 76 C5.485 76.495 5.485 76.495 7 77 C7 77.99 7 78.98 7 80 C6.01 80.495 6.01 80.495 5 81 C5 81.66 5 82.32 5 83 C4.195625 83.12375 3.39125 83.2475 2.5625 83.375 C1.2940625 83.684375 1.2940625 83.684375 0 84 C-0.33 84.66 -0.66 85.32 -1 86 C-0.34 86 0.32 86 1 86 C1 119.66 1 153.32 1 188 C0.67 188 0.34 188 0 188 C0 154.67 0 121.34 0 87 C-26.71615555 87.11868484 -26.71615555 87.11868484 -53.43212891 87.27026367 C-58.61010742 87.28381348 -58.61010742 87.28381348 -61.03744507 87.28633118 C-62.72553888 87.29092499 -64.41362312 87.30144945 -66.10165405 87.31672668 C-68.66511016 87.33875844 -71.22796698 87.34171565 -73.79150391 87.34057617 C-74.53812098 87.3513705 -75.28473804 87.36216482 -76.05397987 87.37328625 C-81.58167744 87.34050238 -85.65430971 86.11061022 -89.79296875 82.38671875 C-95.32300826 75.64843532 -97.52442583 70.78337476 -97.29296875 61.921875 C-96.89571262 57.95990717 -96.04754958 55.41258263 -94 52 C-91 51 -91 51 -89 51 C-88.01 50.505 -88.01 50.505 -87 50 C-87.08378906 50.70125 -87.16757813 51.4025 -87.25390625 52.125 C-88.19437884 60.8868712 -88.83807018 67.74664008 -83 75 C-79.93200879 76.53399561 -76.70597732 76.17947954 -73.33740234 76.20532227 C-72.54707108 76.21522186 -71.75673981 76.22512146 -70.94245911 76.23532104 C-68.3236493 76.26697122 -65.70482134 76.29170733 -63.0859375 76.31640625 C-61.27275108 76.33697274 -59.45956948 76.35796913 -57.64639282 76.37937927 C-52.86901758 76.43463142 -48.09159885 76.48402682 -43.31414795 76.53222656 C-37.58472932 76.59123999 -31.85539036 76.65748523 -26.1260376 76.72252655 C-17.41740696 76.82057561 -8.70872575 76.90940458 0 77 C0 51.59 0 26.18 0 0 Z " fill="#1C364B" transform="translate(121,38)"/>
<path d="M0 0 C1.32 0.66 2.64 1.32 4 2 C4 65.36 4 128.72 4 194 C3.67 194 3.34 194 3 194 C2.67 177.5 2.34 161 2 144 C1.01 144 0.02 144 -1 144 C-1.33 144 -1.66 144 -2 144 C-1.99777939 144.62196259 -1.99555878 145.24392517 -1.99327087 145.88473511 C-1.97119874 152.34063138 -1.9560853 158.79651699 -1.94506836 165.25244141 C-1.94003026 167.66390417 -1.93319966 170.07536386 -1.92456055 172.48681641 C-1.91247213 175.94694779 -1.90676656 179.4070389 -1.90234375 182.8671875 C-1.89718246 183.95055389 -1.89202118 185.03392029 -1.88670349 186.15011597 C-1.88662796 187.1510025 -1.88655243 188.15188904 -1.88647461 189.18310547 C-1.884254 190.06690887 -1.88203339 190.95071228 -1.87974548 191.86129761 C-2 194 -2 194 -3 196 C-3.99 195.67 -4.98 195.34 -6 195 C-5.67 194.67 -5.34 194.34 -5 194 C-4.87455974 190.83457207 -4.8138594 187.68992964 -4.79467773 184.52319336 C-4.78477814 183.52818314 -4.77487854 182.53317291 -4.76467896 181.50801086 C-4.7329596 178.20197979 -4.70826545 174.89593433 -4.68359375 171.58984375 C-4.66303322 169.30440384 -4.642037 167.01896782 -4.62062073 164.73353577 C-4.56530693 158.70505914 -4.51593884 152.67654767 -4.46777344 146.64801025 C-4.41762619 140.50163658 -4.36190484 134.35531379 -4.30664062 128.20898438 C-4.19894528 116.13936633 -4.09752574 104.0697042 -4 92 C-4.66 92 -5.32 92 -6 92 C-5.34 90.68 -4.68 89.36 -4 88 C-2.68 88.33 -1.36 88.66 0 89 C0 88.34 0 87.68 0 87 C-0.99 86.67 -1.98 86.34 -3 86 C-1.02 85.505 -1.02 85.505 1 85 C1 84.34 1 83.68 1 83 C0.34 83 -0.32 83 -1 83 C-1.495 83.99 -1.495 83.99 -2 85 C-2.66 85 -3.32 85 -4 85 C-4.33 57.94 -4.66 30.88 -5 3 C-4.34 3 -3.68 3 -3 3 C-1.37485532 1.54166642 -1.37485532 1.54166642 0 0 Z M-4 90 C-3 92 -3 92 -3 92 Z M-14 196 C-11.36 196 -8.72 196 -6 196 C-6 196.99 -6 197.98 -6 199 C-8.3431213 198.74438677 -10.67843403 198.40729228 -13 198 C-13.33 197.34 -13.66 196.68 -14 196 Z " fill="#0F263F" transform="translate(126,32)"/>
<path d="M0 0 C14.3964076 -0.82212988 24.23172413 1.42938094 35.74609375 10.7421875 C37.65548533 12.65488826 38.86433867 14.27627447 40.3046875 16.515625 C43.08633343 20.54065968 46.27093375 22.00836002 50.6875 23.875 C62.54594582 29.35748675 69.88357684 36.76715369 75.6875 48.375 C76.78428504 51.40421582 77.29448716 53.79685885 77.75 56.9375 C78.63303367 61.91116827 80.67616819 64.53051409 84.24609375 68.015625 C88.74570549 73.10649975 89.46131398 77.7498052 89.3125 84.25 C89.31572266 84.96929687 89.31894531 85.68859375 89.32226562 86.4296875 C89.26765019 91.73234981 89.26765019 91.73234981 87 94 C87 93.34 87 92.68 87 92 C86.34 92 85.68 92 85 92 C83.66666667 90.66666667 82.33333333 89.33333333 81 88 C80.34 89.65 79.68 91.3 79 93 C78.34 93 77.68 93 77 93 C77.15726562 92.44828125 77.31453125 91.8965625 77.4765625 91.328125 C78.8578027 85.18469845 79.10586855 79.04924215 75.75 73.5625 C74.28584448 71.47020369 72.91102078 69.92477521 70.953125 68.26953125 C68.31685991 65.20619122 67.76507886 61.9858146 67 58.125 C65.88176219 52.54416501 64.49241006 48.65883385 61 44 C60.401875 43.154375 59.80375 42.30875 59.1875 41.4375 C54.49186564 36.20522172 50.8927621 34.04639426 44.0625 32.875 C38.77207041 31.73521878 36.79730106 30.14124771 33.75 25.6875 C33.12867188 24.71167969 32.50734375 23.73585938 31.8671875 22.73046875 C29.18897504 18.81400325 25.99337354 16.46847774 22 14 C21.0925 13.401875 20.185 12.80375 19.25 12.1875 C14.28997258 10.37518229 9.2449791 10.24612361 4 10 C7.75 8 7.75 8 10 8 C10 7.34 10 6.68 10 6 C10.66 5.34 11.32 4.68 12 4 C12 3.34 12 2.68 12 2 C8.04 1.67 4.08 1.34 0 1 C0 0.67 0 0.34 0 0 Z M9 2 C12 3 12 3 12 3 Z " fill="#192D47" transform="translate(162,18)"/>
<path d="M0 0 C1.32 0 2.64 0 4 0 C4.34457207 8.48668245 4.32278108 14.44999246 -0.078125 21.80078125 C-1.26687651 24.63665879 -1.27888119 27.05659181 -1.375 30.125 C-2.17543756 41.6926138 -6.70742686 49.8712619 -15 58 C-16.85731375 59.22706185 -18.75426197 60.39642134 -20.6875 61.5 C-26.06050729 64.60440421 -27.91513376 67.86515659 -30.56640625 73.35546875 C-34.94948818 81.44088146 -43.76265085 85.6684499 -52 89 C-52.99 89 -53.98 89 -55 89 C-55 88.34 -55 87.68 -55 87 C-54.01 86.505 -54.01 86.505 -53 86 C-53.66 85.38125 -54.32 84.7625 -55 84.125 C-57 82 -57 82 -57 80 C-56.35933594 79.78085938 -55.71867188 79.56171875 -55.05859375 79.3359375 C-44.09265 75.31563621 -39.62337847 70.13748179 -34.48046875 59.828125 C-32.60777429 56.25073506 -31.6723564 55.25549543 -27.875 53.8125 C-21.77236875 51.25168814 -16.66976327 46.95053873 -13.5625 41.0625 C-11.58434296 36.12135238 -11.70262722 31.06353022 -11.57250977 25.82373047 C-11.32034393 20.41467714 -10.07295503 17.36509939 -6.375 13.48046875 C-4.7478213 11.93328902 -4.7478213 11.93328902 -4 9 C-3.34 9 -2.68 9 -2 9 C-1.855625 7.88625 -1.71125 6.7725 -1.5625 5.625 C-1 2 -1 2 0 0 Z " fill="#183144" transform="translate(255,143)"/>
<path d="M0 0 C14.38253298 -0.82133754 24.53377453 1.33888676 35.87890625 10.94140625 C38.74491854 13.72296882 40.78745722 16.68118583 43 20 C45.14176007 21.88303962 45.14176007 21.88303962 47 23 C46.01 23 45.02 23 44 23 C43.505 24.485 43.505 24.485 43 26 C40.53721199 24.768606 39.57502313 23.21935077 38 21 C37.34 22.98 36.68 24.96 36 27 C35.505 26.319375 35.01 25.63875 34.5 24.9375 C27.50152763 16.71429497 20.42449392 11.19884102 9.5 10.25 C7.66748875 10.15020978 5.83420757 10.06114025 4 10 C7.75 8 7.75 8 10 8 C10 7.34 10 6.68 10 6 C10.66 5.34 11.32 4.68 12 4 C12 3.34 12 2.68 12 2 C8.04 1.67 4.08 1.34 0 1 C0 0.67 0 0.34 0 0 Z M9 2 C12 3 12 3 12 3 Z " fill="#142B42" transform="translate(162,18)"/>
<path d="M0 0 C3.98026316 3.25657895 3.98026316 3.25657895 4.75 6.25 C4.66804478 10.75753706 4.23833209 12.6884181 1.25 16.125 C0.425 16.82625 -0.4 17.5275 -1.25 18.25 C-1.58 18.58 -1.91 18.91 -2.25 19.25 C-7.58043395 19.60536226 -10.90723256 19.69866826 -15.25 16.25 C-17.72631221 12.53553169 -17.78805227 9.55441814 -17.25 5.25 C-15.90635159 1.99695647 -14.99432243 0.67245327 -11.9375 -1.0625 C-7.16942794 -2.28223936 -4.40835152 -2.37372774 0 0 Z " fill="#142E4C" transform="translate(100.25,150.75)"/>
<path d="M0 0 C3.63495428 1.21165143 4.44678302 2.78900345 6.19921875 6.09765625 C7.40255269 8.95630809 7.5303709 10.95036733 7 14 C4.8494071 17.37950314 2.86755883 19.78448151 -1 21 C-8.75 21.55357143 -8.75 21.55357143 -12 19 C-14.60487158 14.90663037 -15.52515166 11.83139526 -15 7 C-12.47376321 -0.36819065 -6.89765677 -0.66054908 0 0 Z " fill="#0F2B41" transform="translate(185,149)"/>
<path d="M0 0 C2.3125 2.5625 2.3125 2.5625 4 5 C3.01 5 2.02 5 1 5 C1 5.99 1 6.98 1 8 C-0.83169318 8.48539869 -2.66546059 8.96297186 -4.5 9.4375 C-5.5209375 9.70433594 -6.541875 9.97117188 -7.59375 10.24609375 C-15.77281971 12.0563695 -23.65300242 12.12464832 -32 12.0625 C-33.15628906 12.05798828 -34.31257812 12.05347656 -35.50390625 12.04882812 C-38.33599225 12.03712529 -41.16796811 12.02072996 -44 12 C-44 11.67 -44 11.34 -44 11 C-42.35 10.67 -40.7 10.34 -39 10 C-39.66 9.34 -40.32 8.68 -41 8 C-40.67 7.34 -40.34 6.68 -40 6 C-36.77311135 5.9103642 -34.11047855 6.19729586 -31 7 C-29.68 7 -28.36 7 -27 7 C-27 6.34 -27 5.68 -27 5 C-26.21496094 5.02320313 -25.42992187 5.04640625 -24.62109375 5.0703125 C-18.65207397 5.17284781 -13.62596482 5.04580539 -8 3 C-8.66 2.01 -9.32 1.02 -10 0 C-6.32390223 -0.94528228 -3.61184249 -1.29655884 0 0 Z " fill="#172F45" transform="translate(199,225)"/>
<path d="M0 0 C2.03833424 1.2739589 4.03852126 2.61061923 6 4 C6 4.66 6 5.32 6 6 C6.78375 6.2475 7.5675 6.495 8.375 6.75 C11.19467304 7.72230105 13.88123813 8.78246476 16.625 9.9375 C22.27287158 12.23625261 28.06353782 13.6535859 34 15 C34 15.33 34 15.66 34 16 C27.565 16.495 27.565 16.495 21 17 C21 17.66 21 18.32 21 19 C15.52191651 20.74302657 12.6901613 19.65363772 7.5625 17.0625 C5.69903358 16.05874324 3.8416267 15.04328606 2 14 C2 13.01 2 12.02 2 11 C1.34 11 0.68 11 0 11 C-0.33 9.68 -0.66 8.36 -1 7 C0.32 7.33 1.64 7.66 3 8 C3 7.34 3 6.68 3 6 C2.01 5.67 1.02 5.34 0 5 C0 3.35 0 1.7 0 0 Z " fill="#193149" transform="translate(58,212)"/>
<path d="M0 0 C0.33 0 0.66 0 1 0 C1 24.09 1 48.18 1 73 C-23.75 73 -48.5 73 -74 73 C-74 72.67 -74 72.34 -74 72 C-50.57 72 -27.14 72 -3 72 C-2.67 58.14 -2.34 44.28 -2 30 C-1.34 30 -0.68 30 0 30 C0 20.1 0 10.2 0 0 Z " fill="#99C0AC" transform="translate(120,42)"/>
<path d="M0 0 C26.4 0 52.8 0 80 0 C80 0.33 80 0.66 80 1 C57.23 1.33 34.46 1.66 11 2 C11 2.33 11 2.66 11 3 C8.03 3 5.06 3 2 3 C1.97687316 11.32728947 1.95908317 19.65456563 1.94818783 27.98187923 C1.94295974 31.84820118 1.93586346 35.71450121 1.92456055 39.58081055 C1.913729 43.30903401 1.9077226 47.03723634 1.90512276 50.76547432 C1.90326899 52.19089656 1.89964929 53.61631759 1.89426994 55.04173088 C1.88705607 57.03163408 1.88659192 59.02155834 1.88647461 61.01147461 C1.884254 62.14620712 1.88203339 63.28093964 1.87974548 64.45005798 C1.71025577 66.93459305 1.71025577 66.93459305 3 68 C3.25 70.9375 3.25 70.9375 3 74 C1.515 74.99 1.515 74.99 0 76 C0 50.92 0 25.84 0 0 Z " fill="#83A59A" transform="translate(154,125)"/>
<path d="M0 0 C5.03419392 3.56237186 8.77165477 6.70473071 10 13 C9.01 12.67 8.02 12.34 7 12 C6.5875 12.495 6.175 12.99 5.75 13.5 C4 15 4 15 0 15 C-0.33 14.01 -0.66 13.02 -1 12 C-2.65948148 10.98812105 -4.32580562 9.9873454 -6 9 C-6 8.34 -6 7.68 -6 7 C-10.29 7 -14.58 7 -19 7 C-19 6.67 -19 6.34 -19 6 C-14.545 5.505 -14.545 5.505 -10 5 C-10 3.68 -10 2.36 -10 1 C-7.70055143 -3.59889714 -3.78108296 -1.71218851 0 0 Z " fill="#203348" transform="translate(120,21)"/>
<path d="M0 0 C0 0.99 0 1.98 0 3 C-0.99 3.33 -1.98 3.66 -3 4 C-3 4.66 -3 5.32 -3 6 C-1.68 6.33 -0.36 6.66 1 7 C0.67 7.66 0.34 8.32 0 9 C-9.09223444 9.15369034 -18.1845369 9.30187198 -27.27697563 9.4429636 C-31.49866537 9.5086479 -35.72030644 9.57625068 -39.94189453 9.64819336 C-44.01370274 9.71751369 -48.08556163 9.78185276 -52.15750504 9.84269524 C-53.71330767 9.86682579 -55.26908324 9.89277061 -56.82482529 9.92053413 C-58.99889642 9.95902647 -61.17297322 9.99114669 -63.34716797 10.02172852 C-64.58626923 10.04171402 -65.82537048 10.06169952 -67.10202026 10.08229065 C-70 10 -70 10 -72 9 C-74.71262116 8.7677354 -77.40773126 8.58063765 -80.125 8.4375 C-80.87910156 8.39431641 -81.63320312 8.35113281 -82.41015625 8.30664062 C-84.27321888 8.2005168 -86.13658524 8.09974999 -88 8 C-88 7.67 -88 7.34 -88 7 C-87.04279556 6.99857498 -86.08559113 6.99714996 -85.09938049 6.99568176 C-76.05152495 6.97896779 -67.00411663 6.93606035 -57.95649815 6.86790943 C-53.30565075 6.83370801 -48.65512946 6.80854015 -44.00415039 6.80444336 C-39.510476 6.80014566 -35.01753638 6.7715618 -30.52409172 6.72656822 C-28.81505561 6.71364005 -27.10593137 6.70926886 -25.39685249 6.71384621 C-12.37674335 6.8462744 -12.37674335 6.8462744 -1 1 C-0.67 0.67 -0.34 0.34 0 0 Z " fill="#9ABBB0" transform="translate(244,119)"/>
<path d="M0 0 C0.33 0.66 0.66 1.32 1 2 C1.99 2 2.98 2 4 2 C4.625 4.3125 4.625 4.3125 5 7 C4.01 8.485 4.01 8.485 3 10 C2.01 10 1.02 10 0 10 C-0.33 10.66 -0.66 11.32 -1 12 C-1.66 11.34 -2.32 10.68 -3 10 C-4.66614608 9.95834635 -6.33385392 9.95834635 -8 10 C-8.66 9.67 -9.32 9.34 -10 9 C-9.67 10.32 -9.34 11.64 -9 13 C-11.475 14.485 -11.475 14.485 -14 16 C-14.66 15.34 -15.32 14.68 -16 14 C-16.33 14.33 -16.66 14.66 -17 15 C-17 15.66 -17 16.32 -17 17 C-17.99 17 -18.98 17 -20 17 C-20 16.34 -20 15.68 -20 15 C-21.98 15.99 -21.98 15.99 -24 17 C-19.99858636 7.60180797 -8.77229364 3.70144693 0 0 Z " fill="#142F45" transform="translate(70,38)"/>
<path d="M0 0 C16.8929385 -0.55353075 16.8929385 -0.55353075 24 3 C23.34 3.66 22.68 4.32 22 5 C22.33 5.66 22.66 6.32 23 7 C22.01 7.495 22.01 7.495 21 8 C22.2065625 8.6496875 22.2065625 8.6496875 23.4375 9.3125 C26 11 26 11 27 14 C29.475 14.495 29.475 14.495 32 15 C31.01 16.32 30.02 17.64 29 19 C27.96939453 18.25943359 27.96939453 18.25943359 26.91796875 17.50390625 C25.56638672 16.54291016 25.56638672 16.54291016 24.1875 15.5625 C23.29417969 14.92441406 22.40085938 14.28632812 21.48046875 13.62890625 C17.62587474 11.09762168 14.32961804 10.77749813 9.8125 10.4375 C8.72582031 10.35371094 7.63914063 10.26992188 6.51953125 10.18359375 C5.68808594 10.12300781 4.85664063 10.06242187 4 10 C7.75 8 7.75 8 10 8 C10 7.34 10 6.68 10 6 C10.66 5.34 11.32 4.68 12 4 C12 3.34 12 2.68 12 2 C8.04 1.67 4.08 1.34 0 1 C0 0.67 0 0.34 0 0 Z M9 2 C12 3 12 3 12 3 Z " fill="#1F3449" transform="translate(162,18)"/>
<path d="M0 0 C0.99 0 1.98 0 3 0 C3.17020718 5.40340239 3.33042942 10.80698516 3.48217773 16.2109375 C3.53490316 18.04174379 3.59015898 19.87247931 3.64819336 21.703125 C4.01106686 33.21410355 3.97346906 44.51732849 3 56 C2.67 56 2.34 56 2 56 C1.67 63.92 1.34 71.84 1 80 C0.67 80 0.34 80 0 80 C0 53.6 0 27.2 0 0 Z " fill="#0E233B" transform="translate(145,56)"/>
<path d="M0 0 C0.33 0 0.66 0 1 0 C1.28875 1.0725 1.5775 2.145 1.875 3.25 C2.72820109 6.09400364 3.5636503 8.43508983 5 11 C5.66 11 6.32 11 7 11 C7 14.38420641 6.50204985 16.42590712 4.2578125 18.9921875 C0.30872241 22.59410484 0.30872241 22.59410484 -2 24 C-2.99 23.67 -3.98 23.34 -5 23 C-5 22.34 -5 21.68 -5 21 C-4.34 20.67 -3.68 20.34 -3 20 C-3.66 19.34 -4.32 18.68 -5 18 C-4.65960792 14.59607918 -3.04742235 12.6445872 -1 10 C0.1577506 6.52674819 0.06866652 3.63932552 0 0 Z " fill="#0E213C" transform="translate(242,99)"/>
<path d="M0 0 C1.32 0 2.64 0 4 0 C4.054348 2.0622048 4.09294961 4.12482816 4.125 6.1875 C4.14820313 7.33605469 4.17140625 8.48460937 4.1953125 9.66796875 C4.00484152 12.91740372 3.39360127 15.08660521 2 18 C0.02 17.67 -1.96 17.34 -4 17 C-3.67 16.01 -3.34 15.02 -3 14 C-3.66 14 -4.32 14 -5 14 C-4.67 12.35 -4.34 10.7 -4 9 C-3.34 9 -2.68 9 -2 9 C-1.7834375 7.329375 -1.7834375 7.329375 -1.5625 5.625 C-1 2 -1 2 0 0 Z " fill="#2B4150" transform="translate(255,143)"/>
<path d="M0 0 C1.0828125 0.2475 1.0828125 0.2475 2.1875 0.5 C4.86427545 0.97587119 7.28949487 1.077443 10 1 C10 1.99 10 2.98 10 4 C6.66666667 5.66666667 3.33333333 7.33333333 0 9 C-0.72703125 9.38414063 -1.4540625 9.76828125 -2.203125 10.1640625 C-4 11 -4 11 -6 11 C-6.66 12.65 -7.32 14.3 -8 16 C-9.32 16 -10.64 16 -12 16 C-12.33 13.69 -12.66 11.38 -13 9 C-11.68 8.34 -10.36 7.68 -9 7 C-9 7.66 -9 8.32 -9 9 C-8.01 9 -7.02 9 -6 9 C-6 8.34 -6 7.68 -6 7 C-6.66 6.67 -7.32 6.34 -8 6 C-6.125 5.375 -6.125 5.375 -4 5 C-3.34 5.66 -2.68 6.32 -2 7 C-1.01 6.34 -0.02 5.68 1 5 C0.67 3.35 0.34 1.7 0 0 Z " fill="#0C2A3D" transform="translate(59,46)"/>
<path d="M0 0 C0.99 0.33 1.98 0.66 3 1 C3.33 2.98 3.66 4.96 4 7 C-0.58921384 10.15654048 -4.29370646 12.57202798 -10 13 C-10 12.34 -10 11.68 -10 11 C-9.34 10.67 -8.68 10.34 -8 10 C-8.66 9.360625 -9.32 8.72125 -10 8.0625 C-12 6 -12 6 -12 5 C-9.36 5 -6.72 5 -4 5 C-3.67 4.34 -3.34 3.68 -3 3 C-2.34 3 -1.68 3 -1 3 C-0.67 2.01 -0.34 1.02 0 0 Z " fill="#102A41" transform="translate(210,219)"/>
<path d="M0 0 C0 0.66 0 1.32 0 2 C-0.66 2 -1.32 2 -2 2 C-2 2.66 -2 3.32 -2 4 C-4.375 5.0625 -4.375 5.0625 -7 6 C-7.66 5.67 -8.32 5.34 -9 5 C-9.54372951 8.05847848 -10 10.88772805 -10 14 C-9.34 14 -8.68 14 -8 14 C-7.67 13.34 -7.34 12.68 -7 12 C-6.01 12.33 -5.02 12.66 -4 13 C-5.62339805 14.70884005 -7.29319053 16.37446717 -9 18 C-9.66 18 -10.32 18 -11 18 C-10.67 19.65 -10.34 21.3 -10 23 C-12.5654594 20.4345406 -12.54046087 18.52313332 -13 15 C-14.32 15 -15.64 15 -17 15 C-15.07324064 9.04456199 -11.68980316 4.8048928 -6.375 1.625 C-3 0 -3 0 0 0 Z " fill="#213448" transform="translate(162,19)"/>
<path d="M0 0 C1.9375 0.8125 1.9375 0.8125 4 2 C4.33 2.99 4.66 3.98 5 5 C2.36 7.31 -0.28 9.62 -3 12 C-3.99 11.01 -4.98 10.02 -6 9 C-6 8.01 -6 7.02 -6 6 C-6.66 6 -7.32 6 -8 6 C-8.33 6.66 -8.66 7.32 -9 8 C-9.66 8 -10.32 8 -11 8 C-11.33 8.99 -11.66 9.98 -12 11 C-14.64 10.67 -17.28 10.34 -20 10 C-17.69908935 8.46605957 -15.59222835 7.25771373 -13.125 6.0625 C-9.98498371 4.51566541 -6.97092211 2.85682632 -4 1 C-3.67 1.66 -3.34 2.32 -3 3 C-2.01 3 -1.02 3 0 3 C0 2.01 0 1.02 0 0 Z " fill="#1A3045" transform="translate(218,214)"/>
<path d="M0 0 C1.134375 0.00902344 2.26875 0.01804688 3.4375 0.02734375 C4.283125 0.03894531 5.12875 0.05054688 6 0.0625 C6 0.3925 6 0.7225 6 1.0625 C4.35 1.3925 2.7 1.7225 1 2.0625 C1 2.3925 1 2.7225 1 3.0625 C-7.50544485 5.46790301 -15.39478268 4.9410009 -24.125 4.1875 C-25.47646359 4.08077136 -26.8280266 3.97529381 -28.1796875 3.87109375 C-31.45431126 3.61380188 -34.72738316 3.34399484 -38 3.0625 C-38 2.4025 -38 1.7425 -38 1.0625 C-37.34515625 1.06773682 -36.6903125 1.07297363 -36.015625 1.07836914 C-33.01042667 1.099327 -30.00524379 1.1122195 -27 1.125 C-25.97003906 1.13337891 -24.94007813 1.14175781 -23.87890625 1.15039062 C-19.44155222 1.16452233 -15.08948641 1.16108092 -10.6875 0.5625 C-7.07094132 0.07211916 -3.64565957 -0.03797562 0 0 Z " fill="#113439" transform="translate(191,225.9375)"/>
<path d="M0 0 C0.12375 0.61875 0.2475 1.2375 0.375 1.875 C0.87197356 4.19120832 0.87197356 4.19120832 3 6 C2.02417969 6.02578125 1.04835938 6.0515625 0.04296875 6.078125 C-1.22933594 6.13484375 -2.50164062 6.1915625 -3.8125 6.25 C-5.70935547 6.31960937 -5.70935547 6.31960937 -7.64453125 6.390625 C-11.07152839 6.67256221 -11.07152839 6.67256221 -12.94921875 9.046875 C-13.29597656 9.69140625 -13.64273438 10.3359375 -14 11 C-14.99 10.67 -15.98 10.34 -17 10 C-17.33 11.32 -17.66 12.64 -18 14 C-19.32 13.34 -20.64 12.68 -22 12 C-16.40833715 5.90000417 -10.93492965 2.86616521 -2.8203125 1.39453125 C-0.98915292 1.16958031 -0.98915292 1.16958031 0 0 Z M-15 11 C-14.67 11.66 -14.34 12.32 -14 13 C-14.66 12.67 -15.32 12.34 -16 12 C-15.67 11.67 -15.34 11.34 -15 11 Z " fill="#85AC97" transform="translate(76,47)"/>
<path d="M0 0 C1.32 1.65 2.64 3.3 4 5 C3.34 6.32 2.68 7.64 2 9 C2.66 9.33 3.32 9.66 4 10 C3.67 10.33 3.34 10.66 3 11 C3.66 11.33 4.32 11.66 5 12 C5 12.66 5 13.32 5 14 C4.01 14 3.02 14 2 14 C2 14.99 2 15.98 2 17 C2.66 17 3.32 17 4 17 C3.67 17.66 3.34 18.32 3 19 C-2.80205656 13.35475578 -2.80205656 13.35475578 -5 10 C-5 9.34 -5 8.68 -5 8 C-4.34 8 -3.68 8 -3 8 C-1.92474806 5.34771188 -0.90543849 2.71631546 0 0 Z " fill="#1A3550" transform="translate(56,206)"/>
<path d="M0 0 C2.12999997 3.79039366 2.16702456 6.65736138 2 11 C2.66 10.67 3.32 10.34 4 10 C3.67 12.97 3.34 15.94 3 19 C3.66 18.67 4.32 18.34 5 18 C4.25 22.75 4.25 22.75 2 25 C-0.125 24.625 -0.125 24.625 -2 24 C-1.34 23.34 -0.68 22.68 0 22 C-0.99 21.34 -1.98 20.68 -3 20 C-2.67 19.34 -2.34 18.68 -2 18 C-1.67 18 -1.34 18 -1 18 C-1.33 17.67 -1.66 17.34 -2 17 C-1.79771219 15.11198043 -1.58655118 13.22436691 -1.32421875 11.34375 C-0.9860683 8.8992889 -0.70532286 6.45310212 -0.4375 4 C-0.35371094 3.236875 -0.26992187 2.47375 -0.18359375 1.6875 C-0.12300781 1.130625 -0.06242188 0.57375 0 0 Z " fill="#0E263D" transform="translate(245,167)"/>
<path d="M0 0 C1.32 0.66 2.64 1.32 4 2 C3.6875 5.375 3.6875 5.375 3 9 C2.01 9.66 1.02 10.32 0 11 C-0.99 10.67 -1.98 10.34 -3 10 C-3.33 10.66 -3.66 11.32 -4 12 C-5.65 11.67 -7.3 11.34 -9 11 C-7.75 7.5625 -7.75 7.5625 -6 4 C-3.875 3.1875 -3.875 3.1875 -2 3 C-1.67 2.34 -1.34 1.68 -1 1 C-0.67 1.66 -0.34 2.32 0 3 C0 2.01 0 1.02 0 0 Z " fill="#12293F" transform="translate(222,207)"/>
<path d="M0 0 C7.22124213 0.41830366 14.04567778 0.95461111 21 3 C21 3.33 21 3.66 21 4 C14.565 4.495 14.565 4.495 8 5 C8 5.66 8 6.32 8 7 C6.35 7.33 4.7 7.66 3 8 C3 7.34 3 6.68 3 6 C2.01 5.67 1.02 5.34 0 5 C0 3.33333333 0 1.66666667 0 0 Z " fill="#0F2844" transform="translate(71,224)"/>
<path d="M0 0 C2.13093906 1.06546953 3.36587557 2.29159719 5 4 C5.33 3.34 5.66 2.68 6 2 C7.65 2 9.3 2 11 2 C11.33 2.66 11.66 3.32 12 4 C10.35 4.66 8.7 5.32 7 6 C7.66 6.33 8.32 6.66 9 7 C9 7.66 9 8.32 9 9 C4.545 9.495 4.545 9.495 0 10 C-2 7 -2 7 -1.6875 4.4375 C-1 2 -1 2 0 0 Z " fill="#122741" transform="translate(200,39)"/>
<path d="M0 0 C-3.06117568 2.62386487 -3.73173127 3 -8 3 C-8.33 3.99 -8.66 4.98 -9 6 C-9.99 6.495 -9.99 6.495 -11 7 C-10.48041715 11.37934119 -9.94324258 15.68803391 -9 20 C-12 19 -12 19 -13.6875 16.3125 C-15.33606987 12.15182365 -15.71208548 9.076916 -14.25 4.8125 C-10.42268381 -0.73710847 -6.254289 -0.36082437 0 0 Z " fill="#183A3E" transform="translate(185,149)"/>
<path d="M0 0 C2.03833424 1.2739589 4.03852126 2.61061923 6 4 C6 4.66 6 5.32 6 6 C7.32 6.33 8.64 6.66 10 7 C9.75 8.875 9.75 8.875 9 11 C6.41847698 12.72101535 5.15081975 13 2 13 C2 12.34 2 11.68 2 11 C1.34 11 0.68 11 0 11 C-0.33 9.68 -0.66 8.36 -1 7 C0.32 7.33 1.64 7.66 3 8 C3 7.34 3 6.68 3 6 C2.01 5.67 1.02 5.34 0 5 C0 3.35 0 1.7 0 0 Z " fill="#113049" transform="translate(58,212)"/>
<path d="M0 0 C3.94139078 1.66751148 6.7892812 4.22710649 10 7 C9.401875 7.28875 8.80375 7.5775 8.1875 7.875 C5.80672208 9.04742026 5.80672208 9.04742026 3 11 C0.875 10.75 0.875 10.75 -1 10 C-1.33 9.34 -1.66 8.68 -2 8 C-1.34 8 -0.68 8 0 8 C0 7.34 0 6.68 0 6 C-0.99 5.34 -1.98 4.68 -3 4 C-2.34 4 -1.68 4 -1 4 C-0.67 2.68 -0.34 1.36 0 0 Z " fill="#DAE4ED" transform="translate(27,117)"/>
<path d="M0 0 C0.99 0.33 1.98 0.66 3 1 C3 2.32 3 3.64 3 5 C1.68 5 0.36 5 -1 5 C-1.33 7.97 -1.66 10.94 -2 14 C-1.01 14 -0.02 14 1 14 C1.36504603 15.58086048 1.71660506 17.16483907 2.0625 18.75 C2.35833984 20.07257813 2.35833984 20.07257813 2.66015625 21.421875 C2.99825872 23.98679028 2.81158635 25.57091639 2 28 C-2.84139632 21.15288235 -4.10706282 15.32603492 -3 7 C-2.23016818 4.4018176 -1.30544942 2.39332394 0 0 Z " fill="#1F3447" transform="translate(27,90)"/>
<path d="M0 0 C3.96 0 7.92 0 12 0 C12 0.66 12 1.32 12 2 C12.66 2.66 13.32 3.32 14 4 C12.68 4.33 11.36 4.66 10 5 C10 5.66 10 6.32 10 7 C5.82262526 8.59138085 2.46839215 9.21278058 -2 9 C-1.67 8.34 -1.34 7.68 -1 7 C0.99285937 6.62633887 2.99363529 6.29259485 5 6 C5.33 5.67 5.66 5.34 6 5 C5.34 4.34 4.68 3.68 4 3 C1.97549079 3 -0.02400526 3.59466775 -2 4 C-2 3.34 -2 2.68 -2 2 C-1.34 2 -0.68 2 0 2 C0 1.34 0 0.68 0 0 Z " fill="#0C2339" transform="translate(162,19)"/>
<path d="M0 0 C0.33 1.32 0.66 2.64 1 4 C0.34 4 -0.32 4 -1 4 C-0.67 6.64 -0.34 9.28 0 12 C-0.99 12 -1.98 12 -3 12 C-3.66 15.63 -4.32 19.26 -5 23 C-7 21 -7 21 -7.125 17.875 C-7.08375 16.92625 -7.0425 15.9775 -7 15 C-6.34 15 -5.68 15 -5 15 C-5 11.37 -5 7.74 -5 4 C-4.34 4 -3.68 4 -3 4 C-3 3.01 -3 2.02 -3 1 C-2.01 0.67 -1.02 0.34 0 0 Z " fill="#0C2944" transform="translate(31,164)"/>
<path d="M0 0 C-0.36629088 6.10484805 -1.5155722 9.00301001 -6 13 C-9.6875 13.5625 -9.6875 13.5625 -13 13 C-13.66 12.01 -14.32 11.02 -15 10 C-14.01 10 -13.02 10 -12 10 C-12 10.66 -12 11.32 -12 12 C-10.68 11.34 -9.36 10.68 -8 10 C-8 8.35 -8 6.7 -8 5 C-6.68 4.67 -5.36 4.34 -4 4 C-4 3.34 -4 2.68 -4 2 C-1 0 -1 0 0 0 Z " fill="#D5DCE5" transform="translate(241,102)"/>
<path d="M0 0 C0.99 0.495 0.99 0.495 2 1 C2 1.66 2 2.32 2 3 C2.66 3 3.32 3 4 3 C4.33 2.34 4.66 1.68 5 1 C5.66 1.99 6.32 2.98 7 4 C6.34 4 5.68 4 5 4 C5 7.63 5 11.26 5 15 C4.34 15 3.68 15 3 15 C3 16.65 3 18.3 3 20 C2.67 20 2.34 20 2 20 C1.34 13.4 0.68 6.8 0 0 Z " fill="#2D3E53" transform="translate(21,164)"/>
<path d="M0 0 C0.66 0.99 1.32 1.98 2 3 C2.66 2.67 3.32 2.34 4 2 C4.33 2.99 4.66 3.98 5 5 C3.68 5 2.36 5 1 5 C1.66 5.33 2.32 5.66 3 6 C3 6.66 3 7.32 3 8 C3.99 8.33 4.98 8.66 6 9 C5.01 9.33 4.02 9.66 3 10 C3 10.66 3 11.32 3 12 C3.66 12.33 4.32 12.66 5 13 C5 14.32 5 15.64 5 17 C1.83884224 15.63016497 1.0072908 15.0109362 -1 12 C-1.04346799 10.00047242 -1.039992 7.99960012 -1 6 C-1.291224 4.32546201 -1.61070799 2.65449105 -2 1 C-1.34 0.67 -0.68 0.34 0 0 Z " fill="#1B3349" transform="translate(31,106)"/>
<path d="M0 0 C0.99 0.33 1.98 0.66 3 1 C2.38461538 7.52307692 2.38461538 7.52307692 0.4375 9.9375 C-0.036875 10.288125 -0.51125 10.63875 -1 11 C-1.66 10.67 -2.32 10.34 -3 10 C-3 9.67 -3 9.34 -3 9 C-3.66 9 -4.32 9 -5 9 C-5 8.34 -5 7.68 -5 7 C-6.32 7.33 -7.64 7.66 -9 8 C-6.20005201 5.04449934 -3.25563278 2.44172459 0 0 Z " fill="#D5DEE0" transform="translate(221,220)"/>
<path d="M0 0 C1.5 1.3125 1.5 1.3125 3 3 C3 3.99 3 4.98 3 6 C2.34 6 1.68 6 1 6 C1.99 6.66 2.98 7.32 4 8 C3.67 8.66 3.34 9.32 3 10 C3.66 10.66 4.32 11.32 5 12 C1.90902264 12.99352844 0.08374821 12.96367132 -3 12 C-3.7425 11.814375 -4.485 11.62875 -5.25 11.4375 C-5.8275 11.293125 -6.405 11.14875 -7 11 C-6.21625 10.113125 -5.4325 9.22625 -4.625 8.3125 C-2.42843009 5.69279481 -1.06209659 3.28284399 0 0 Z " fill="#1B3648" transform="translate(242,181)"/>
<path d="M0 0 C0.33 0 0.66 0 1 0 C0.91304042 2.60578866 0.80618592 5.2081279 0.6875 7.8125 C0.66494141 8.55048828 0.64238281 9.28847656 0.61914062 10.04882812 C0.34367396 15.58320393 0.34367396 15.58320393 -1.46875 17.78125 C-1.9740625 18.1834375 -2.479375 18.585625 -3 19 C-3.74386068 21.30988315 -4.42190703 23.64315944 -5 26 C-7 23 -7 23 -6.5390625 19.64453125 C-6.23742187 18.37996094 -5.93578125 17.11539063 -5.625 15.8125 C-5.32851563 14.54019531 -5.03203125 13.26789063 -4.7265625 11.95703125 C-4.48679687 10.98121094 -4.24703125 10.00539062 -4 9 C-3.34 9.66 -2.68 10.32 -2 11 C-2 8.69 -2 6.38 -2 4 C-1.34 4 -0.68 4 0 4 C0 2.68 0 1.36 0 0 Z " fill="#203B55" transform="translate(32,164)"/>
<path d="M0 0 C0.33 0 0.66 0 1 0 C1.06058594 0.61488281 1.12117187 1.22976562 1.18359375 1.86328125 C1.26738281 2.67152344 1.35117188 3.47976562 1.4375 4.3125 C1.51871094 5.11300781 1.59992188 5.91351563 1.68359375 6.73828125 C1.95265693 9.16087179 1.95265693 9.16087179 3 12 C3.0798857 15.0984238 2.81592395 18.00647769 2 21 C-0.5625 23.5625 -0.5625 23.5625 -3 25 C-4.27474609 21.11627359 -3.31838959 19.23106765 -1.76953125 15.50390625 C-0.23164006 10.49990498 -0.22998349 5.20238505 0 0 Z " fill="#C3D0D7" transform="translate(253,167)"/>
<path d="M0 0 C1.375 2.0625 1.375 2.0625 2 4 C1.01 4.33 0.02 4.66 -1 5 C-0.67 6.32 -0.34 7.64 0 9 C-0.99 9 -1.98 9 -3 9 C-2.67 8.01 -2.34 7.02 -2 6 C-4.31 5.34 -6.62 4.68 -9 4 C-8.34 3.34 -7.68 2.68 -7 2 C-7.66 1.34 -8.32 0.68 -9 0 C-5.44712603 -1.18429132 -3.58589143 -0.99184231 0 0 Z " fill="#162940" transform="translate(190,23)"/>
<path d="M0 0 C2.88437779 1.29299694 4.87219421 2.65941363 7 5 C3.125 10.875 3.125 10.875 2 12 C0.33382885 12.04063832 -1.33388095 12.042721 -3 12 C-2.319375 11.4225 -1.63875 10.845 -0.9375 10.25 C1.25212963 8.21828941 1.25212963 8.21828941 0.9375 5.8125 C0.0805106 3.63941744 0.0805106 3.63941744 -3 3 C-2.01 2.01 -1.02 1.02 0 0 Z " fill="#142E42" transform="translate(73,37)"/>
<path d="M0 0 C0.66 0 1.32 0 2 0 C2.33 0.99 2.66 1.98 3 3 C3.99 3 4.98 3 6 3 C5.67 4.65 5.34 6.3 5 8 C-0.75 10 -0.75 10 -3 10 C-3.75 8.375 -3.75 8.375 -4 6 C-2.1875 2.75 -2.1875 2.75 0 0 Z " fill="#0F273E" transform="translate(250,157)"/>
<path d="M0 0 C0.33 0.66 0.66 1.32 1 2 C1.763125 1.67 2.52625 1.34 3.3125 1 C6 0 6 0 9 0 C9.3125 2.25 9.3125 2.25 9 5 C6.5 7.3125 6.5 7.3125 4 9 C2.68 8.34 1.36 7.68 0 7 C0 4.69 0 2.38 0 0 Z " fill="#132540" transform="translate(230,75)"/>
<path d="M0 0 C-1.96382007 1.50559539 -3.78263366 2.89131683 -6 4 C-5.67 4.66 -5.34 5.32 -5 6 C-8.98196457 7.05404945 -11.98195309 6.84098656 -16 6 C-15.01 5.67 -14.02 5.34 -13 5 C-12.67 4.34 -12.34 3.68 -12 3 C-11.34 2.67 -10.68 2.34 -10 2 C-10 1.01 -10 0.02 -10 -1 C-6.18510326 -2.46726798 -3.70988378 -1.43336419 0 0 Z " fill="#22364C" transform="translate(218,44)"/>
<path d="M0 0 C3.29804771 0.56862892 4.80019989 1.50022714 7 4 C7.66 4.66 8.32 5.32 9 6 C8.01 6 7.02 6 6 6 C5.67 6.99 5.34 7.98 5 9 C2.53721199 7.768606 1.57502313 6.21935077 0 4 C-0.66 5.98 -1.32 7.96 -2 10 C-3.32 8.35 -4.64 6.7 -6 5 C-5.38125 4.9175 -4.7625 4.835 -4.125 4.75 C-1.81562433 4.18741541 -1.81562433 4.18741541 -0.75 1.9375 C-0.5025 1.298125 -0.255 0.65875 0 0 Z " fill="#26374D" transform="translate(200,35)"/>
<path d="M0 0 C0.99 0 1.98 0 3 0 C3.33 0.66 3.66 1.32 4 2 C4.99 2.33 5.98 2.66 7 3 C6.01 3.495 6.01 3.495 5 4 C5.020625 5.299375 5.04125 6.59875 5.0625 7.9375 C5.07004972 12.69382325 4.59887117 17.28388953 4 22 C3.67 22 3.34 22 3 22 C2.26969092 15.78675502 1.76819751 10.15901243 3 4 C2.34 4.66 1.68 5.32 1 6 C0.01 5.67 -0.98 5.34 -2 5 C-1.34 3.35 -0.68 1.7 0 0 Z " fill="#1F3D44" transform="translate(30,85)"/>
<path d="M0 0 C2.97 0.33 5.94 0.66 9 1 C9 1.66 9 2.32 9 3 C9.99 3.66 10.98 4.32 12 5 C11.67 5.99 11.34 6.98 11 8 C10.34 8 9.68 8 9 8 C8.67 8.66 8.34 9.32 8 10 C2.74013158 5.14473684 2.74013158 5.14473684 2 1 C1.34 0.67 0.68 0.34 0 0 Z " fill="#132D3E" transform="translate(112,24)"/>
<path d="M0 0 C0.66 0.33 1.32 0.66 2 1 C1.67 2.32 1.34 3.64 1 5 C0.01 5 -0.98 5 -2 5 C-2.33 5.99 -2.66 6.98 -3 8 C-3.33 8.33 -3.66 8.66 -4 9 C-4 9.66 -4 10.32 -4 11 C-4.99 11 -5.98 11 -7 11 C-7 10.34 -7 9.68 -7 9 C-8.98 9.99 -8.98 9.99 -11 11 C-9.52202738 7.32943063 -7.52384523 5.58914217 -4.375 3.25 C-3.55773438 2.63640625 -2.74046875 2.0228125 -1.8984375 1.390625 C-0.95871094 0.70226563 -0.95871094 0.70226563 0 0 Z " fill="#263B50" transform="translate(57,44)"/>
<path d="M0 0 C0.66 0 1.32 0 2 0 C2.2134222 5.33555495 2.34551123 10.06208162 0 15 C-0.99 15.33 -1.98 15.66 -3 16 C-4.0789673 12.77748432 -3.94905076 11.10969719 -2.625 8 C-1.51684498 5.34871323 -0.63860635 2.80485926 0 0 Z " fill="#19293E" transform="translate(251,171)"/>
<path d="M0 0 C3.21880117 3.7935871 5.6163187 7.65829477 8 12 C7.34 12.66 6.68 13.32 6 14 C5.01 13.67 4.02 13.34 3 13 C2.87625 12.195625 2.7525 11.39125 2.625 10.5625 C2.315625 9.2940625 2.315625 9.2940625 2 8 C1.34 7.67 0.68 7.34 0 7 C-1.26229508 2.52459016 -1.26229508 2.52459016 0 0 Z " fill="#143250" transform="translate(24,152)"/>
<path d="M0 0 C2 1 2 1 4 3 C4.33 2.34 4.66 1.68 5 1 C7.5 2.25 7.5 2.25 10 4 C10 5.32 10 6.64 10 8 C5.43545749 7.45660208 2.0271824 6.20536179 -2 4 C-2 3.01 -2 2.02 -2 1 C-1.34 0.67 -0.68 0.34 0 0 Z " fill="#88AECB" transform="translate(70,216)"/>
<path d="M0 0 C1.65 0 3.3 0 5 0 C4.814375 0.5775 4.62875 1.155 4.4375 1.75 C3.95976454 4.20692525 4.24270636 5.64397534 5 8 C3.02 8.99 3.02 8.99 1 10 C1 9.01 1 8.02 1 7 C0.01 6.67 -0.98 6.34 -2 6 C-1.34 4.02 -0.68 2.04 0 0 Z " fill="#0D283A" transform="translate(82,26)"/>
<path d="M0 0 C1.48693359 0.11794922 1.48693359 0.11794922 3.00390625 0.23828125 C3.80699219 0.38652344 4.61007813 0.53476563 5.4375 0.6875 C5.7675 1.3475 6.0975 2.0075 6.4375 2.6875 C5.68984375 2.73648438 4.9421875 2.78546875 4.171875 2.8359375 C3.18703125 2.91070312 2.2021875 2.98546875 1.1875 3.0625 C-0.27429688 3.16691406 -0.27429688 3.16691406 -1.765625 3.2734375 C-4.50646531 3.67920436 -6.27308666 4.14372128 -8.5625 5.6875 C-8.8925 6.6775 -9.2225 7.6675 -9.5625 8.6875 C-9.5625 7.6975 -9.5625 6.7075 -9.5625 5.6875 C-10.2225 5.3575 -10.8825 5.0275 -11.5625 4.6875 C-10.9025 4.6875 -10.2425 4.6875 -9.5625 4.6875 C-9.5625 4.0275 -9.5625 3.3675 -9.5625 2.6875 C-8.9025 2.6875 -8.2425 2.6875 -7.5625 2.6875 C-7.5625 2.0275 -7.5625 1.3675 -7.5625 0.6875 C-4.86233366 -0.66258317 -2.99272164 -0.26142419 0 0 Z " fill="#90B7A4" transform="translate(180.5625,146.3125)"/>
<path d="M0 0 C0.33 0.66 0.66 1.32 1 2 C1.99 2 2.98 2 4 2 C5.125 6.75 5.125 6.75 4 9 C3.01 8.67 2.02 8.34 1 8 C-1.33183607 7.32811503 -3.66501142 6.66084583 -6 6 C-6 5.01 -6 4.02 -6 3 C-4.02 2.01 -2.04 1.02 0 0 Z " fill="#21394F" transform="translate(70,38)"/>
<path d="M0 0 C0.66 0.33 1.32 0.66 2 1 C2.33 1.99 2.66 2.98 3 4 C4.65 4.33 6.3 4.66 8 5 C7.01 6.32 6.02 7.64 5 9 C3.96939453 8.27683594 3.96939453 8.27683594 2.91796875 7.5390625 C2.01691406 6.90742187 1.11585938 6.27578125 0.1875 5.625 C-0.70582031 4.99851562 -1.59914062 4.37203125 -2.51953125 3.7265625 C-4.33267878 2.46449761 -6.16188211 1.22541192 -8 0 C-4.67803635 -1.10732122 -3.31749961 -0.85064093 0 0 Z " fill="#293A50" transform="translate(186,28)"/>
<path d="M0 0 C1.09123569 3.27370707 0.68408391 5.25102561 0.19140625 8.59375 C-0.16596559 13.08642462 0.46694367 17.53872855 1 22 C0.34 21.67 -0.32 21.34 -1 21 C-1.34153937 19.33499557 -1.67449498 17.66821323 -2 16 C-2.66 15.34 -3.32 14.68 -4 14 C-4 13.01 -4 12.02 -4 11 C-3.34 11 -2.68 11 -2 11 C-1.67 9.02 -1.34 7.04 -1 5 C-1.66 5 -2.32 5 -3 5 C-3 4.34 -3 3.68 -3 3 C-3.66 2.67 -4.32 2.34 -5 2 C-4.360625 1.855625 -3.72125 1.71125 -3.0625 1.5625 C-1.02454854 1.18992819 -1.02454854 1.18992819 0 0 Z " fill="#0B273A" transform="translate(33,88)"/>
<path d="M0 0 C0.8971875 0.309375 0.8971875 0.309375 1.8125 0.625 C0.4925 2.275 -0.8275 3.925 -2.1875 5.625 C-3.1775 5.295 -4.1675 4.965 -5.1875 4.625 C-5.5175 5.945 -5.8475 7.265 -6.1875 8.625 C-7.5075 7.965 -8.8275 7.305 -10.1875 6.625 C-3.20231959 -0.54896907 -3.20231959 -0.54896907 0 0 Z M-3.1875 5.625 C-2.8575 6.285 -2.5275 6.945 -2.1875 7.625 C-2.8475 7.295 -3.5075 6.965 -4.1875 6.625 C-3.8575 6.295 -3.5275 5.965 -3.1875 5.625 Z " fill="#8BB2A1" transform="translate(64.1875,52.375)"/>
<path d="M0 0 C0.68707555 2.49064888 1 4.37886292 1 7 C1.66 7.66 2.32 8.32 3 9 C2.525625 9.45375 2.05125 9.9075 1.5625 10.375 C-0.09027808 11.93258204 -0.09027808 11.93258204 -1 14 C-1.99 13.67 -2.98 13.34 -4 13 C-4.33 12.01 -4.66 11.02 -5 10 C-4.34 9.34 -3.68 8.68 -3 8 C-3.99 7.67 -4.98 7.34 -6 7 C-5.566875 6.5875 -5.13375 6.175 -4.6875 5.75 C-2.94161728 3.93945495 -1.47380729 2.03525768 0 0 Z " fill="#20334F" transform="translate(238,111)"/>
<path d="M0 0 C0.66 0 1.32 0 2 0 C6.86006826 7.59385666 6.86006826 7.59385666 6 13 C4.5 14.875 4.5 14.875 3 16 C2.34 15.67 1.68 15.34 1 15 C1.66 14.34 2.32 13.68 3 13 C3.39764263 11.01178687 3.73775349 9.01055661 4 7 C3.34 7 2.68 7 2 7 C2 6.34 2 5.68 2 5 C1.34 5 0.68 5 0 5 C-0.33 4.01 -0.66 3.02 -1 2 C-0.67 1.34 -0.34 0.68 0 0 Z " fill="#1A3A3D" transform="translate(186,150)"/>
<path d="M0 0 C1.31611677 0.95336021 2.62778961 1.91285774 3.9375 2.875 C4.66839844 3.40867187 5.39929688 3.94234375 6.15234375 4.4921875 C8 6 8 6 9 8 C7.02 8 5.04 8 3 8 C2.67 7.01 2.34 6.02 2 5 C0.35 5 -1.3 5 -3 5 C-3 3 -3 3 -1.5 1.375 C-1.005 0.92125 -0.51 0.4675 0 0 Z " fill="#1B3145" transform="translate(192,25)"/>
<path d="M0 0 C0.66 0.33 1.32 0.66 2 1 C1.34 3.31 0.68 5.62 0 8 C0.66 8.33 1.32 8.66 2 9 C2 9.66 2 10.32 2 11 C1.34 11 0.68 11 0 11 C0 10.34 0 9.68 0 9 C-4.29 9 -8.58 9 -13 9 C-13 8.67 -13 8.34 -13 8 C-8.545 7.505 -8.545 7.505 -4 7 C-4 5.68 -4 4.36 -4 3 C-3 1 -3 1 0 0 Z " fill="#27434E" transform="translate(114,19)"/>
<path d="M0 0 C2.31 0 4.62 0 7 0 C7.33 0.66 7.66 1.32 8 2 C7.67 2.66 7.34 3.32 7 4 C7.66 4 8.32 4 9 4 C9.66 5.32 10.32 6.64 11 8 C10.01 8.495 10.01 8.495 9 9 C8.649375 8.5875 8.29875 8.175 7.9375 7.75 C5.21655906 5.29237593 2.21560348 3.75948115 -1 2 C-0.67 1.34 -0.34 0.68 0 0 Z " fill="#25364B" transform="translate(39,201)"/>
<path d="M0 0 C0.99 0 1.98 0 3 0 C3 3.63 3 7.26 3 11 C1.68 11 0.36 11 -1 11 C-1.33 11.99 -1.66 12.98 -2 14 C-2.33 12.68 -2.66 11.36 -3 10 C-1.68 9.67 -0.36 9.34 1 9 C0.67 8.34 0.34 7.68 0 7 C-0.04022391 4.6670134 -0.04320247 2.33293334 0 0 Z " fill="#122733" transform="translate(255,143)"/>
<path d="M0 0 C-0.1135629 1.64666203 -0.24117381 3.29236082 -0.375 4.9375 C-0.44460937 5.85402344 -0.51421875 6.77054687 -0.5859375 7.71484375 C-0.72257812 8.46894531 -0.85921875 9.22304687 -1 10 C-1.99 10.495 -1.99 10.495 -3 11 C-3.66 10.67 -4.32 10.34 -5 10 C-4.67 8.68 -4.34 7.36 -4 6 C-4.66 6 -5.32 6 -6 6 C-5.625 3.5625 -5.625 3.5625 -5 1 C-3 0 -3 0 0 0 Z " fill="#C6D1DA" transform="translate(38,69)"/>
<path d="M0 0 C0.66 0.33 1.32 0.66 2 1 C1.60791281 6.35852494 -0.3357387 10.14168125 -4 14 C-4.66 14 -5.32 14 -6 14 C-4.50829734 9.0276578 -2.39542583 4.58154261 0 0 Z " fill="#96BBAC" transform="translate(250,148)"/>
<path d="M0 0 C0.66 0.99 1.32 1.98 2 3 C-2.25592068 4.16070564 -5.70251973 3.9730144 -10 3 C-10.66 2.01 -11.32 1.02 -12 0 C-7.8735131 -1.54743259 -4.22685814 -0.81810158 0 0 Z " fill="#CFDAE4" transform="translate(212,51)"/>
<path d="M0 0 C3.06393013 -0.25532751 4.63233212 -0.21861333 7.3125 1.375 C7.869375 1.91125 8.42625 2.4475 9 3 C9 3.66 9 4.32 9 5 C5.98509443 6.00496852 3.95818308 6.10335303 0.8125 6.0625 C-0.53908203 6.04896484 -0.53908203 6.04896484 -1.91796875 6.03515625 C-2.60503906 6.02355469 -3.29210937 6.01195312 -4 6 C-4 5.67 -4 5.34 -4 5 C-2.35 4.67 -0.7 4.34 1 4 C0.34 3.34 -0.32 2.68 -1 2 C-0.67 1.34 -0.34 0.68 0 0 Z " fill="#273B52" transform="translate(159,231)"/>
<path d="M0 0 C0.33 0 0.66 0 1 0 C1.33 3.3 1.66 6.6 2 10 C1.34 10 0.68 10 0 10 C-1.175625 11.175625 -1.175625 11.175625 -2.375 12.375 C-4.62061333 14.62061333 -6.12018877 15.82674357 -9 17 C-7.84152738 13.98797119 -6.29363557 12.29502654 -3.9375 10.1875 C-0.69344367 7.1013053 -0.18004263 4.5010657 0 0 Z " fill="#87A8A1" transform="translate(45,77)"/>
<path d="M0 0 C1.32 0 2.64 0 4 0 C4.33 2.31 4.66 4.62 5 7 C4.34 7 3.68 7 3 7 C2.01 8.32 1.02 9.64 0 11 C0 7.37 0 3.74 0 0 Z " fill="#182E41" transform="translate(18,143)"/>
<path d="M0 0 C0.33 0.66 0.66 1.32 1 2 C-0.30208333 3.46484375 -1.60416667 4.9296875 -2.90625 6.39453125 C-4.28151241 8.089448 -4.28151241 8.089448 -4 11 C-5.98 11.33 -7.96 11.66 -10 12 C-7.29076328 6.68572797 -4.77135213 3.57851409 0 0 Z " fill="#293F51" transform="translate(81,26)"/>
<path d="M0 0 C4.62 0 9.24 0 14 0 C11.41451372 2.58548628 9.70461615 2.97641847 6.08203125 3.09765625 C4.46361328 3.08025391 4.46361328 3.08025391 2.8125 3.0625 C1.18248047 3.04896484 1.18248047 3.04896484 -0.48046875 3.03515625 C-1.31191406 3.02355469 -2.14335938 3.01195312 -3 3 C-2.01 2.67 -1.02 2.34 0 2 C0 1.34 0 0.68 0 0 Z " fill="#112539" transform="translate(103,234)"/>
<path d="M0 0 C0.99 1.485 0.99 1.485 2 3 C2.66 2.01 3.32 1.02 4 0 C6.1519437 3.22791555 6.20086443 4.28400809 6 8 C5.34 8 4.68 8 4 8 C3.67 8.99 3.34 9.98 3 11 C1.5 10 1.5 10 0 8 C-0.27345479 5.28153765 -0.13491285 2.74322801 0 0 Z " fill="#93BAD9" transform="translate(105,155)"/>
<path d="M0 0 C0.66 0 1.32 0 2 0 C1.34 4.29 0.68 8.58 0 13 C-0.33 12.01 -0.66 11.02 -1 10 C-1.99 9.67 -2.98 9.34 -4 9 C-4.33 7.35 -4.66 5.7 -5 4 C-3.68 4.33 -2.36 4.66 -1 5 C-0.67 3.35 -0.34 1.7 0 0 Z " fill="#0F2738" transform="translate(231,59)"/>
<path d="M0 0 C0.33 1.32 0.66 2.64 1 4 C-0.65 3.67 -2.3 3.34 -4 3 C-3.67 3.99 -3.34 4.98 -3 6 C-3.33 6.66 -3.66 7.32 -4 8 C-6.475 7.01 -6.475 7.01 -9 6 C-8.67 5.01 -8.34 4.02 -8 3 C-8.33 2.34 -8.66 1.68 -9 1 C-5.94152152 0.45627049 -3.11227195 0 0 0 Z " fill="#10243B" transform="translate(219,45)"/>
<path d="M0 0 C3.0916909 2.52956528 3.90931332 5.22454612 5 9 C4.01 9.33 3.02 9.66 2 10 C-0.1875 8.5625 -0.1875 8.5625 -2 7 C-1.67 6.21625 -1.34 5.4325 -1 4.625 C0.11866511 2.15667503 0.11866511 2.15667503 0 0 Z " fill="#D1D8E0" transform="translate(46,207)"/>
<path d="M0 0 C2.64 0 5.28 0 8 0 C8.33 0.99 8.66 1.98 9 3 C6.75 5.0625 6.75 5.0625 4 7 C1.6875 6.75 1.6875 6.75 0 6 C0 5.34 0 4.68 0 4 C0.99 3.67 1.98 3.34 3 3 C3.66 3.33 4.32 3.66 5 4 C5 3.34 5 2.68 5 2 C3.35 1.67 1.7 1.34 0 1 C0 0.67 0 0.34 0 0 Z " fill="#112942" transform="translate(34,193)"/>
<path d="M0 0 C1.8125 0.1875 1.8125 0.1875 4 1 C6.14197494 3.90696599 7 5.35521088 7 9 C7.66 9 8.32 9 9 9 C8.67 9.66 8.34 10.32 8 11 C2.19794344 5.35475578 2.19794344 5.35475578 0 2 C0 1.34 0 0.68 0 0 Z " fill="#28374A" transform="translate(51,214)"/>
<path d="M0 0 C0.99 0.33 1.98 0.66 3 1 C3.94921875 3.72265625 3.94921875 3.72265625 4.6875 7.0625 C4.93886719 8.16722656 5.19023437 9.27195313 5.44921875 10.41015625 C5.63097656 11.26480469 5.81273437 12.11945313 6 13 C3 12 3 12 1.3125 9.3125 C-0.03558623 5.91018714 -0.25833766 3.61672729 0 0 Z " fill="#214346" transform="translate(170,156)"/>
<path d="M0 0 C3.62528568 -0.20140476 5.86501708 0.14223235 9 2 C8.67 3.32 8.34 4.64 8 6 C6.02 6 4.04 6 2 6 C2 4.35 2 2.7 2 1 C1.34 0.67 0.68 0.34 0 0 Z " fill="#13283F" transform="translate(219,50)"/>
<path d="M0 0 C3.6875 0.875 3.6875 0.875 7 2 C6.01 2.66 5.02 3.32 4 4 C4.33 5.65 4.66 7.3 5 9 C4.01 9.33 3.02 9.66 2 10 C2 9.34 2 8.68 2 8 C1.34 7.67 0.68 7.34 0 7 C0.66 5.68 1.32 4.36 2 3 C1.01 3.33 0.02 3.66 -1 4 C-1.66 3.34 -2.32 2.68 -3 2 C-2.01 1.34 -1.02 0.68 0 0 Z " fill="#21374C" transform="translate(85,23)"/>
<path d="M0 0 C1.32 0.33 2.64 0.66 4 1 C4 1.66 4 2.32 4 3 C4.598125 2.67 5.19625 2.34 5.8125 2 C8 1 8 1 11 1 C10 4 10 4 8.125 5.1875 C6 6 6 6 3 6 C3 5.34 3 4.68 3 4 C2.34 4 1.68 4 1 4 C0.67 2.68 0.34 1.36 0 0 Z " fill="#0F263F" transform="translate(57,219)"/>
<path d="M0 0 C0.66 0.33 1.32 0.66 2 1 C1.65066406 1.44730469 1.30132812 1.89460937 0.94140625 2.35546875 C-1.68898628 5.85023956 -3.59207142 8.51278557 -4 13 C-4.99 13 -5.98 13 -7 13 C-6.43697042 9.05879291 -5.3208055 6.2491277 -3 3 C-2.34 3 -1.68 3 -1 3 C-0.67 2.01 -0.34 1.02 0 0 Z " fill="#D2E4EF" transform="translate(25,129)"/>
<path d="M0 0 C0.99 0.33 1.98 0.66 3 1 C3 2.32 3 3.64 3 5 C1.68 5 0.36 5 -1 5 C-1.33 9.62 -1.66 14.24 -2 19 C-2.33 19 -2.66 19 -3 19 C-3.31461385 11.90370975 -3.44572039 6.31715405 0 0 Z " fill="#4A5B6D" transform="translate(27,90)"/>
<path d="M0 0 C3 0 3 0 5 1.75 C6.79185122 3.76583262 8.43315111 5.80641156 10 8 C7.69 8.33 5.38 8.66 3 9 C3.0928125 7.824375 3.0928125 7.824375 3.1875 6.625 C3.125625 5.75875 3.06375 4.8925 3 4 C2.01 3.34 1.02 2.68 0 2 C0 1.34 0 0.68 0 0 Z " fill="#C8D1DA" transform="translate(192,42)"/>
<path d="M0 0 C1.32 0.33 2.64 0.66 4 1 C3.67 3.31 3.34 5.62 3 8 C0.36 6.68 -2.28 5.36 -5 4 C-2 2 -2 2 0 2 C0 1.34 0 0.68 0 0 Z " fill="#C9D4DA" transform="translate(121,16)"/>
<path d="M0 0 C0.66 0.33 1.32 0.66 2 1 C0.625 3 0.625 3 -1 5 C-1.66 5 -2.32 5 -3 5 C-3.33 5.99 -3.66 6.98 -4 8 C-6.64 7.67 -9.28 7.34 -12 7 C-9.62905601 5.41937067 -7.4213606 4.17309564 -4.875 2.9375 C-2.24526174 1.74120952 -2.24526174 1.74120952 0 0 Z " fill="#1E4348" transform="translate(210,217)"/>
<path d="M0 0 C-1 3 -1 3 -3 4 C-3.65555119 6.52733235 -3.65555119 6.52733235 -4 9 C-4.99 9 -5.98 9 -7 9 C-7 8.34 -7 7.68 -7 7 C-7.66 6.67 -8.32 6.34 -9 6 C-7.8803014 4.99406757 -6.7540588 3.9954151 -5.625 3 C-4.68527344 2.1646875 -4.68527344 2.1646875 -3.7265625 1.3125 C-2 0 -2 0 0 0 Z " fill="#85AB9E" transform="translate(92,31)"/>
<path d="M0 0 C1.23556641 0.01740234 1.23556641 0.01740234 2.49609375 0.03515625 C3.32238281 0.04417969 4.14867188 0.05320312 5 0.0625 C5.63808594 0.07410156 6.27617188 0.08570312 6.93359375 0.09765625 C4.09928922 3.35185775 2.24751601 4.61833155 -2.06640625 5.09765625 C-2.62890625 3.16015625 -2.62890625 3.16015625 -3.06640625 1.09765625 C-2.06640625 0.09765625 -2.06640625 0.09765625 0 0 Z " fill="#092834" transform="translate(91.06640625,25.90234375)"/>
<path d="M0 0 C0.99 0.33 1.98 0.66 3 1 C2.25 2.9375 2.25 2.9375 1 5 C-1.95319818 6.23843794 -2.87438528 6.04187157 -6 5 C-6.33 4.34 -6.66 3.68 -7 3 C-5.5459375 2.5359375 -5.5459375 2.5359375 -4.0625 2.0625 C-1.15934208 1.30476658 -1.15934208 1.30476658 0 0 Z " fill="#CFD9DD" transform="translate(130,232)"/>
<path d="M0 0 C2.31 0.33 4.62 0.66 7 1 C6.67 1.66 6.34 2.32 6 3 C7.32 3.66 8.64 4.32 10 5 C5.545 5.495 5.545 5.495 1 6 C0.67 4.02 0.34 2.04 0 0 Z " fill="#223A51" transform="translate(188,229)"/>
<path d="M0 0 C0 0.66 0 1.32 0 2 C1.65 2.33 3.3 2.66 5 3 C4.67 4.32 4.34 5.64 4 7 C1 6 1 6 -1 5 C-1.33 4.01 -1.66 3.02 -2 2 C-3.32 2.33 -4.64 2.66 -6 3 C-3.375 0 -3.375 0 0 0 Z " fill="#183856" transform="translate(46,195)"/>
<path d="M0 0 C2 2 2 2 2.125 5.625 C2.08375 6.73875 2.0425 7.8525 2 9 C0.68 9 -0.64 9 -2 9 C-2.33 6.36 -2.66 3.72 -3 1 C-2.01 0.67 -1.02 0.34 0 0 Z " fill="#22384D" transform="translate(231,68)"/>
<path d="M0 0 C2.35953094 2.35953094 2.49141413 3.77895617 3 7 C1.02 7 -0.96 7 -3 7 C-3.33 7.66 -3.66 8.32 -4 9 C-3.46930939 5.17902761 -2.50298434 2.93828597 0 0 Z " fill="#91BBA9" transform="translate(53,60)"/>
<path d="M0 0 C0.33 1.32 0.66 2.64 1 4 C-2.87564767 7.61139896 -2.87564767 7.61139896 -5 9 C-7.375 8.8125 -7.375 8.8125 -9 8 C-8.34 8 -7.68 8 -7 8 C-6.67 7.01 -6.34 6.02 -6 5 C-4.35178756 3.96986723 -2.68496298 2.96885372 -1 2 C-0.67 1.34 -0.34 0.68 0 0 Z " fill="#93BAAE" transform="translate(236,187)"/>
<path d="M0 0 C2.83139051 4.42404768 2.3540529 8.91993923 1.5 13.9375 C1.335 14.618125 1.17 15.29875 1 16 C0.67 16 0.34 16 0 16 C-0.19504458 13.89651926 -0.38078496 11.79217415 -0.5625 9.6875 C-0.66691406 8.51574219 -0.77132812 7.34398438 -0.87890625 6.13671875 C-1 3 -1 3 0 0 Z " fill="#E1E8F3" transform="translate(252,90)"/>
<path d="M0 0 C1.65 1.65 3.3 3.3 5 5 C4.01 5.495 4.01 5.495 3 6 C2.67 6.66 2.34 7.32 2 8 C0.68 7.01 -0.64 6.02 -2 5 C-1.34 3.35 -0.68 1.7 0 0 Z " fill="#1F3749" transform="translate(228,53)"/>
<path d="M0 0 C0 0.99 0 1.98 0 3 C-0.66 3 -1.32 3 -2 3 C-2 3.99 -2 4.98 -2 6 C-1.34 6 -0.68 6 0 6 C0.33 7.32 0.66 8.64 1 10 C-0.32 10.33 -1.64 10.66 -3 11 C-3 7.7 -3 4.4 -3 1 C-2.01 0.67 -1.02 0.34 0 0 Z " fill="#96BBA6" transform="translate(37,97)"/>
<path d="M0 0 C1.5 1.125 1.5 1.125 3 3 C3.1875 6.1875 3.1875 6.1875 3 9 C2.01 9 1.02 9 0 9 C0 7.35 0 5.7 0 4 C-0.99 4.99 -1.98 5.98 -3 7 C-3 3.48283697 -2.17554415 2.62878252 0 0 Z " fill="#2A4157" transform="translate(45,55)"/>
<path d="M0 0 C0.66 0.99 1.32 1.98 2 3 C1.34 4.32 0.68 5.64 0 7 C-0.99 7 -1.98 7 -3 7 C-3.33 5.35 -3.66 3.7 -4 2 C-2.68 1.34 -1.36 0.68 0 0 Z " fill="#182A40" transform="translate(53,207)"/>
<path d="M0 0 C0.99 0.33 1.98 0.66 3 1 C3.33 2.98 3.66 4.96 4 7 C2.68 7.33 1.36 7.66 0 8 C0 6.68 0 5.36 0 4 C-0.66 3.67 -1.32 3.34 -2 3 C-1.34 2.01 -0.68 1.02 0 0 Z " fill="#08243D" transform="translate(210,219)"/>
<path d="M0 0 C-2.83430453 3.2542015 -4.68607774 4.5206753 -9 5 C-8.34 4.01 -7.68 3.02 -7 2 C-7 1.34 -7 0.68 -7 0 C-4.3333581 -1.33332095 -2.83319697 -0.67102033 0 0 Z " fill="#092539" transform="translate(233,198)"/>
<path d="M0 0 C0 0.99 0 1.98 0 3 C-0.99 3.33 -1.98 3.66 -3 4 C-3 4.66 -3 5.32 -3 6 C-1.68 6.33 -0.36 6.66 1 7 C0.67 7.66 0.34 8.32 0 9 C-1.65 8.67 -3.3 8.34 -5 8 C-4.64950425 4.75791433 -4.43778819 3.38472296 -1.9375 1.1875 C-1.298125 0.795625 -0.65875 0.40375 0 0 Z " fill="#A9C4BC" transform="translate(244,119)"/>
<path d="M0 0 C1.33617352 0.97528737 2.6688751 1.95533319 4 2.9375 C4.7425 3.48277344 5.485 4.02804688 6.25 4.58984375 C6.8275 5.05519531 7.405 5.52054687 8 6 C8 6.33 8 6.66 8 7 C5.125 7.1875 5.125 7.1875 2 7 C0 4 0 4 0 0 Z " fill="#C9D9E4" transform="translate(29,118)"/>
<path d="M0 0 C0.99 0.33 1.98 0.66 3 1 C1.02 3.97 -0.96 6.94 -3 10 C-3.66 9.34 -4.32 8.68 -5 8 C-4.67 7.01 -4.34 6.02 -4 5 C-3.34 5.33 -2.68 5.66 -2 6 C-1.855625 5.195625 -1.71125 4.39125 -1.5625 3.5625 C-1 1 -1 1 0 0 Z " fill="#193C42" transform="translate(53,56)"/>
<path d="M0 0 C1.65 1.65 3.3 3.3 5 5 C4 7 4 7 2 8 C0.68 6.68 -0.64 5.36 -2 4 C-1.67 3.34 -1.34 2.68 -1 2 C-0.67 2 -0.34 2 0 2 C0 1.34 0 0.68 0 0 Z " fill="#C7CFDB" transform="translate(234,87)"/>
<path d="M0 0 C3 1 3 1 4.1875 3.0625 C4.455625 3.701875 4.72375 4.34125 5 5 C3.125 6.0625 3.125 6.0625 1 7 C0.34 6.67 -0.32 6.34 -1 6 C-1.042721 4.33388095 -1.04063832 2.66617115 -1 1 C-0.67 0.67 -0.34 0.34 0 0 Z " fill="#E2E8EF" transform="translate(241,72)"/>
<path d="M0 0 C0.99 0.66 1.98 1.32 3 2 C1.625 4 1.625 4 0 6 C-0.66 6 -1.32 6 -2 6 C-2 5.34 -2 4.68 -2 4 C-3.32 4.33 -4.64 4.66 -6 5 C-4.06745228 2.9754262 -2.36841312 1.57894208 0 0 Z " fill="#C1CDD6" transform="translate(218,223)"/>
<path d="M0 0 C1.2065625 0.0309375 1.2065625 0.0309375 2.4375 0.0625 C2.1875 1.9375 2.1875 1.9375 1.4375 4.0625 C-0.625 5.3125 -0.625 5.3125 -2.5625 6.0625 C-2.94468767 4.40635343 -3.27645102 2.73792976 -3.5625 1.0625 C-2.5625 0.0625 -2.5625 0.0625 0 0 Z " fill="#1E3247" transform="translate(240.5625,194.9375)"/>
<path d="M0 0 C2 1.375 2 1.375 4 3 C4 3.66 4 4.32 4 5 C2.35 5.66 0.7 6.32 -1 7 C-1 3 -1 3 0 0 Z " fill="#1F344D" transform="translate(242,82)"/>
<path d="M0 0 C0 0.33 0 0.66 0 1 C-1.65 1.33 -3.3 1.66 -5 2 C-5 2.33 -5 2.66 -5 3 C-7.64 3 -10.28 3 -13 3 C-9.21656826 -0.94792877 -5.07874402 -0.29300446 0 0 Z " fill="#072933" transform="translate(197,226)"/>
<path d="M0 0 C0.99 0.33 1.98 0.66 3 1 C2.34 1 1.68 1 1 1 C1 1.66 1 2.32 1 3 C2.65 3.33 4.3 3.66 6 4 C5.67 4.66 5.34 5.32 5 6 C4.4225 5.814375 3.845 5.62875 3.25 5.4375 C0.79307475 4.95976454 -0.64397534 5.24270636 -3 6 C-2.01 4.02 -1.02 2.04 0 0 Z " fill="#87B097" transform="translate(223,192)"/>
<path d="M0 0 C0.99 0.66 1.98 1.32 3 2 C3.99 2 4.98 2 6 2 C6 2.99 6 3.98 6 5 C2.26512223 4.5020163 0.18762365 4.12508244 -3 2 C-2.01 1.34 -1.02 0.68 0 0 Z " fill="#0C2334" transform="translate(238,191)"/>
<path d="M0 0 C0.33 0 0.66 0 1 0 C1.25 7.625 1.25 7.625 -1 11 C-2.35439668 8.29120665 -2.06501451 5.99066732 -2 3 C-1.34 3 -0.68 3 0 3 C0 2.01 0 1.02 0 0 Z " fill="#12243B" transform="translate(26,176)"/>
<path d="M0 0 C0.99 0.33 1.98 0.66 3 1 C2.67 2.32 2.34 3.64 2 5 C-0.31 5 -2.62 5 -5 5 C-3.35 3.35 -1.7 1.7 0 0 Z " fill="#15363C" transform="translate(182,165)"/>
<path d="M0 0 C0.8971875 0.309375 0.8971875 0.309375 1.8125 0.625 C1.8125 1.285 1.8125 1.945 1.8125 2.625 C-1.4875 3.285 -4.7875 3.945 -8.1875 4.625 C-3.04115854 -0.52134146 -3.04115854 -0.52134146 0 0 Z " fill="#A0BCCD" transform="translate(35.1875,125.375)"/>
<path d="M0 0 C-0.33 1.65 -0.66 3.3 -1 5 C-2.98 4.34 -4.96 3.68 -7 3 C-7 2.34 -7 1.68 -7 1 C-4.53721199 -0.231394 -2.7204945 -0.07159196 0 0 Z " fill="#D5E5E0" transform="translate(248,122)"/>
<path d="M0 0 C-1.75 4.875 -1.75 4.875 -4 6 C-4.66 5.67 -5.32 5.34 -6 5 C-5.625 3.0625 -5.625 3.0625 -5 1 C-3 0 -3 0 0 0 Z " fill="#1E2D44" transform="translate(249,112)"/>
<path d="M0 0 C0.99 0 1.98 0 3 0 C3.33 0.66 3.66 1.32 4 2 C4.66 2.33 5.32 2.66 6 3 C5.01 3.33 4.02 3.66 3 4 C2.34 4.66 1.68 5.32 1 6 C0.01 5.67 -0.98 5.34 -2 5 C-1.34 3.35 -0.68 1.7 0 0 Z " fill="#283C51" transform="translate(30,85)"/>
<path d="M0 0 C0.99 0 1.98 0 3 0 C3.125 2.875 3.125 2.875 3 6 C1 8 1 8 -1.625 8.125 C-2.40875 8.08375 -3.1925 8.0425 -4 8 C-3.34 7.4225 -2.68 6.845 -2 6.25 C0.44290923 4.00346023 0.44290923 4.00346023 0 0 Z " fill="#0C2D31" transform="translate(74,41)"/>
<path d="M0 0 C0 0.66 0 1.32 0 2 C-0.66 2 -1.32 2 -2 2 C-2.33 2.66 -2.66 3.32 -3 4 C-4.65 2.68 -6.3 1.36 -8 0 C-4.71023192 -1.09658936 -3.28696233 -0.79953138 0 0 Z " fill="#CCD5E0" transform="translate(224,43)"/>
<path d="M0 0 C0.33 0.99 0.66 1.98 1 3 C3.01508358 3.73323796 3.01508358 3.73323796 5 4 C3.02 4.99 1.04 5.98 -1 7 C-1 6.34 -1 5.68 -1 5 C-1.66 4.67 -2.32 4.34 -3 4 C-2.67 3.01 -2.34 2.02 -2 1 C-1.34 0.67 -0.68 0.34 0 0 Z " fill="#22364D" transform="translate(229,201)"/>
<path d="M0 0 C0.99 0.33 1.98 0.66 3 1 C4.1875 4.5625 4.1875 4.5625 5 8 C4.01 8 3.02 8 2 8 C0.23537317 4.91190305 0 3.76687864 0 0 Z " fill="#173450" transform="translate(30,179)"/>
<path d="M0 0 C0.99 0.66 1.98 1.32 3 2 C2.75 4.375 2.75 4.375 2 7 C0.02 7.99 0.02 7.99 -2 9 C-1.34 6.03 -0.68 3.06 0 0 Z " fill="#12243B" transform="translate(38,71)"/>
<path d="M0 0 C2.76223278 2.76223278 2.57856291 5.20706617 3 9 C2.01 9.33 1.02 9.66 0 10 C-1.125 2.25 -1.125 2.25 0 0 Z " fill="#263C54" transform="translate(40,62)"/>
<path d="M0 0 C0.66 0.33 1.32 0.66 2 1 C1.625 3.4375 1.625 3.4375 1 6 C0.01 6.495 0.01 6.495 -1 7 C-1.66 6.34 -2.32 5.68 -3 5 C-3 4.01 -3 3.02 -3 2 C-2.01 2 -1.02 2 0 2 C0 1.34 0 0.68 0 0 Z " fill="#122549" transform="translate(240,112)"/>
<path d="M0 0 C0.66 0 1.32 0 2 0 C2 0.66 2 1.32 2 2 C2.66 2 3.32 2 4 2 C3.67 3.98 3.34 5.96 3 8 C1.0549 5.08235 0.54723683 3.37462715 0 0 Z M-1 3 C-0.01 4.485 -0.01 4.485 1 6 C0.34 6 -0.32 6 -1 6 C-1 5.01 -1 4.02 -1 3 Z " fill="#DFECED" transform="translate(34,64)"/>
<path d="M0 0 C0.33 0.66 0.66 1.32 1 2 C2.98 2 4.96 2 7 2 C6.34 3.32 5.68 4.64 5 6 C2.08482708 4.92598892 0.22189824 4.22189824 -2 2 C-1.34 2 -0.68 2 0 2 C0 1.34 0 0.68 0 0 Z " fill="#28394A" transform="translate(62,223)"/>
<path d="M0 0 C0.99 0.33 1.98 0.66 3 1 C1.92598892 3.91517292 1.22189824 5.77810176 -1 8 C-1.93065133 5.39417629 -2.14917407 4.35801776 -1.0625 1.75 C-0.711875 1.1725 -0.36125 0.595 0 0 Z " fill="#8EB0A2" transform="translate(216,205)"/>
<path d="M0 0 C1.125 3.75 1.125 3.75 0 6 C-1.98 6 -3.96 6 -6 6 C-5.38125 5.7525 -4.7625 5.505 -4.125 5.25 C-1.64931313 3.79371361 -1.04874998 2.62187494 0 0 Z " fill="#81A593" transform="translate(190,164)"/>
<path d="M0 0 C1.485 0.99 1.485 0.99 3 2 C3 2.66 3 3.32 3 4 C3.66 4 4.32 4 5 4 C4.67 4.99 4.34 5.98 4 7 C3.01 6.67 2.02 6.34 1 6 C0.67 4.02 0.34 2.04 0 0 Z " fill="#A2C0A8" transform="translate(249,130)"/>
<path d="M0 0 C1.32 1.32 2.64 2.64 4 4 C2.68 5.65 1.36 7.3 0 9 C-1.125 3.375 -1.125 3.375 0 0 Z " fill="#C9D3DC" transform="translate(25,112)"/>
<path d="M0 0 C-0.33 0.66 -0.66 1.32 -1 2 C-3.0625 2.625 -3.0625 2.625 -5 3 C-5.66 1.68 -6.32 0.36 -7 -1 C-3.51418144 -2.2020064 -3.32007656 -2.21338437 0 0 Z " fill="#D2D8E2" transform="translate(247,79)"/>
<path d="M0 0 C-2.14331139 2.14331139 -3.14086424 2.514193 -6 3.25 C-6.70125 3.44078125 -7.4025 3.6315625 -8.125 3.828125 C-8.74375 3.88484375 -9.3625 3.9415625 -10 4 C-10.66 3.34 -11.32 2.68 -12 2 C-7.82262526 0.40861915 -4.46839215 -0.21278058 0 0 Z " fill="#85AA9E" transform="translate(104,28)"/>
<path d="M0 0 C0 0.66 0 1.32 0 2 C-6.93 1.505 -6.93 1.505 -14 1 C-14 0.67 -14 0.34 -14 0 C-12.41773035 -0.19627391 -10.83410729 -0.38165538 -9.25 -0.5625 C-8.36828125 -0.66691406 -7.4865625 -0.77132813 -6.578125 -0.87890625 C-4.11567549 -0.99456676 -2.33461936 -0.73638695 0 0 Z " fill="#BECAD6" transform="translate(180,17)"/>
<path d="M0 0 C1.98 0.495 1.98 0.495 4 1 C3.34 2.32 2.68 3.64 2 5 C1.01 5 0.02 5 -1 5 C-0.67 3.35 -0.34 1.7 0 0 Z " fill="#243447" transform="translate(248,181)"/>
<path d="M0 0 C0.33 0 0.66 0 1 0 C1.2236337 1.41433206 1.42826476 2.83167618 1.625 4.25 C1.74101562 5.03890625 1.85703125 5.8278125 1.9765625 6.640625 C2.00319395 9.32152459 1.36592084 10.72694089 0 13 C-0.66 13 -1.32 13 -2 13 C-1.34 8.71 -0.68 4.42 0 0 Z " fill="#425066" transform="translate(241,98)"/>
<path d="M0 0 C1.9375 0.25 1.9375 0.25 4 1 C4.66 1.99 5.32 2.98 6 4 C5.01 4.33 4.02 4.66 3 5 C2.34 4.67 1.68 4.34 1 4 C1 3.34 1 2.68 1 2 C0.34 1.67 -0.32 1.34 -1 1 C-0.67 0.67 -0.34 0.34 0 0 Z " fill="#CEDAE5" transform="translate(186,34)"/>
<path d="M0 0 C-0.33 0.66 -0.66 1.32 -1 2 C-4.63 1.67 -8.26 1.34 -12 1 C-12 0.67 -12 0.34 -12 0 C-3.42857143 -1.28571429 -3.42857143 -1.28571429 0 0 Z " fill="#AEBCC8" transform="translate(192,236)"/>
<path d="M0 0 C1.65 1.65 3.3 3.3 5 5 C4.67 5.66 4.34 6.32 4 7 C3.34 7 2.68 7 2 7 C2 6.34 2 5.68 2 5 C1.34 5 0.68 5 0 5 C0 3.35 0 1.7 0 0 Z " fill="#183551" transform="translate(35,187)"/>
<path d="M0 0 C-1.32 0.99 -2.64 1.98 -4 3 C-4 2.34 -4 1.68 -4 1 C-6.31 1 -8.62 1 -11 1 C-11 0.67 -11 0.34 -11 0 C-3.57142857 -1.28571429 -3.57142857 -1.28571429 0 0 Z " fill="#9AC1AB" transform="translate(188,171)"/>
<path d="M0 0 C1.98 0.495 1.98 0.495 4 1 C3.67 2.98 3.34 4.96 3 7 C1.68 5.68 0.36 4.36 -1 3 C-0.67 2.01 -0.34 1.02 0 0 Z " fill="#8DB4A3" transform="translate(250,145)"/>
<path d="M0 0 C0.33 0 0.66 0 1 0 C1.33 3.3 1.66 6.6 2 10 C0.35 10 -1.3 10 -3 10 C-2.34 9.01 -1.68 8.02 -1 7 C-0.60612212 4.67612053 -0.26513915 2.34206251 0 0 Z " fill="#77998B" transform="translate(45,77)"/>
<path d="M0 0 C0.33 0 0.66 0 1 0 C0.67 2.31 0.34 4.62 0 7 C-1.32 7 -2.64 7 -4 7 C-3.67 6.01 -3.34 5.02 -3 4 C-2.34 4 -1.68 4 -1 4 C-0.67 2.68 -0.34 1.36 0 0 Z " fill="#0D233B" transform="translate(45,57)"/>
<path d="M0 0 C0.763125 0.20625 1.52625 0.4125 2.3125 0.625 C0.9925 1.615 -0.3275 2.605 -1.6875 3.625 C-3.0075 2.965 -4.3275 2.305 -5.6875 1.625 C-2.6875 -0.375 -2.6875 -0.375 0 0 Z " fill="#1B2F45" transform="translate(215.6875,43.375)"/>
<path d="M0 0 C1.65 1.65 3.3 3.3 5 5 C3.02 5 1.04 5 -1 5 C-0.67 3.35 -0.34 1.7 0 0 Z " fill="#304356" transform="translate(196,28)"/>
</svg>
